<?xml version="1.0" encoding="UTF-8"?>
<svg version="1.1" viewBox="0 0 1600 666" width="977" height="407" xmlns="http://www.w3.org/2000/svg">
<path transform="translate(773,74)" d="m0 0 37 1 10 19 9 16 12 21 3 3 5-12 10-18 11-21 4-8h39l-2 6-3 7v122l5 10v1h-45l2-5 1-11v-63l-8 14-10 16-7 10-2 3-4-2-6-7-20-30-2-4v67l3 12h-43l2-6 3-5 1-42v-49l-1-31-7-9v-4z" fill="#2A385A"/>
<path transform="translate(61,274)" d="m0 0h17l4 4 12 23 9 15 9 16v2h2l2-6 12-25 9-16 7-13h38l-1 5-4 7-1 7v111l1 10 4 5v4h-44l2-5 2-3 1-26-1-48-14 24-8 14-6 8-4-1-12-18-11-19-3-6-2-1 1 26 1 44 4 11h-44l4-6 1-10v-110l-1-13-4-7v-2z" fill="#293758"/>
<path transform="translate(1088,274)" d="m0 0h34l5 8 11 20 12 21 8 13 4 6-1-45-1-12-5-7v-4h44l-2 7-3 4-1 14v92l1 25 4 2v5h-35l-2-10-3-10-15-30-12-22-6-9h-1v64l2 10 2 7h-41l2-5 3-5 1-8v-119l-6-9z" fill="#283658"/>
<path transform="translate(672,477)" d="m0 0h64l15 4 10 6 8 9 5 14 1 14-4 16-6 10-7 7-3 2 2 6 14 32 8 16 8 7v3h-42l-5-12-15-34-4-6-4-3h-5v42l1 5 4 2v6h-45l4-12v-109l-1-13-3-9zm39 26v22l1 17h17l8-6 4-8v-12l-3-8-5-4-3-1z" fill="#283658"/>
<path transform="translate(627,274)" d="m0 0h53l13 2 11 4 11 8 8 8 6 10 3 9 1 7v53l-4 15-7 13-5 6-10 7-13 5-8 2h-59l1-5 2-4 1-12v-95l-1-22-3-7zm37 26v97l1 1h11l8-2 6-4 6-8 2-5 1-9v-41l-2-14-5-8-6-5-6-2z" fill="#283658"/>
<path transform="translate(1439,274)" d="m0 0h34l11 1-1 5-4 4v101l3 7 4 3 3 1h12l6-4 2-6v-92l-1-11-3-6v-3h43l-2 8-2 4-1 105-3 10-8 11-10 7-10 4-15 2-17-1-12-4-11-7-7-9-4-8-1-4-1-14v-61l-1-32-4-7z" fill="#293758"/>
<path transform="translate(746,274)" d="m0 0h24l22 1-4 7-2 2v104l3 5 4 3 3 1h11l6-4 2-3 1-21v-66l-1-18-4-6-1-5h42l-1 8-1 1-1 28v63l-1 21-3 8-7 9-7 6-10 5-11 2h-17l-11-2-14-7-7-6-8-14-1-4-1-20v-68l-1-19-3-3z" fill="#2D3A5B"/>
<path transform="translate(969,274)" d="m0 0h33l11 1-2 5-4 4v103l2 7 9 3h8l6-3 4-5v-101l-2-6-2-4v-4h42l-1 7-3 2-1 17v79l-1 17-6 12-8 8-12 6-13 3h-18l-12-3-9-5-8-7-6-10-3-8-1-106-3-8z" fill="#2A3759"/>
<path transform="translate(1237,274)" d="m0 0h53l1 2-1 11 5 25 8 34 8 29 9 34 7 14h-48l2-5 2-2v-12l-3-15v-3h-34l-1 9-2 12v7l4 9h-43l1-4 4-6 5-19 8-36 12-46 4-18v-12zm25 36-7 35-2 17h20l-1-11-8-41z" fill="#283658"/>
<path transform="translate(221,274)" d="m0 0h52l1 17 6 27 5 18 14 56 6 19 6 10v2h-46l2-6 1-1v-12l-3-14v-4h-33l-3 12-1 6v12l2 7h-42l1-5 5-11 6-21 9-40 11-49 1-4zm25 38-2 7-5 27-1 7v8h20l-4-26-5-23z" fill="#293758"/>
<path transform="translate(826,477)" d="m0 0h55l1 2v12l4 19 24 96 5 12 2 5h-44l1-6v-11l-4-18-33-1-2 13v23h-43l1-4 6-9 5-15 9-36 7-29 5-18 3-14 1-12-3-5zm26 36-8 43v7l7 1h13v-8l-5-26-4-16z" fill="#293658"/>
<path transform="translate(533,274)" d="m0 0h53v17l3 16 6 23 6 28 12 51 3 6 5 6v2h-45l2-7v-10l-3-19h-33l-3 11-1 6v11l3 6v2h-42l2-6 6-15 9-37 8-31 9-38 1-6v-8zm24 36-4 20-5 24v8h21l-1-10-6-29-3-13z" fill="#293758"/>
<path transform="translate(1389,274)" d="m0 0h43l-1 5-5 10-10 40-8 30-12 49-3 15h-41l-6-25-11-41-17-67-3-6-5-7v-2h46v5l-2 2v10l6 31 6 27 4 19v5l5 1 1-11 9-42 5-26 1-12z" fill="#293759"/>
<path transform="translate(701,74)" d="m0 0h54l1 2 1 18v14l-6-2-7-4-38-1 1 30h29l1-4h5l1 6v29l-5-1-3-2-18-1h-11v37l40-1 12-5h3l-1 10-4 21-1 2h-89l4-11v-119l-1-8-3-7v-2z" fill="#2B385A"/>
<path transform="translate(384,273)" d="m0 0h14l1 2 1 14v18l-5-1-7-3-14-2h-6l-1 16v73l1 22 5 11h-46l2-5 2-2 1-5 1-111-21 2-10 5h-3l1-14 3-19z" fill="#283657"/>
<path transform="translate(864,274)" d="m0 0h93l1 1 3 27v6l-4-1-7-5-5-1-17-1v62l1 49 3 12h-43l2-7 2-2 1-13v-101l-25 1v2l-8 4h-1l1-14 2-18z" fill="#293759"/>
<path transform="translate(390,472)" d="m0 0h11l8 4 4 6 1 3v7l-3 5-6 3-7-1-3-6-2-7-6 1-4 5-2 10 2 10 4 6v2l14 7 9 2h26l17-4 15-5 26-12 21-10 19-7 21-6 14-2h10l14 3 12 5 11 7 9 9 8 14 5 19v8l-4 12-6 11-5 6-10 6-9 3-12 1-13-4-9-7-4-5-4-9v-14l4-8 8-7 9-3 10 2 6 5 2 4v6l-5 5-4 2-5-1-6-7h-4l-2 5v10l4 7 7 5 3 1h17l10-5 8-9 5-10 1-11-4-11-6-10-6-5-16-4-10-1-14 2-14 5-9 7-6 9-7 16-4 2-4-2v-9l4-10 8-10 8-6 11-5 17-4 7-1h9l12 3 7 4-9-7-14-7-7-2h-19l-19 5-16 7-29 15-19 10-16 7-20 6-10 2h-20l-14-4-14-7-10-9-6-11-1-4v-16l4-10 6-7z" fill="#E1BE84"/>
<path transform="translate(426,274)" d="m0 0h25l-1 7-2 3-1 8v104l36-1 10-6h6l-2 16-4 17-1 1-84 1 2-7 2-5 1-30v-72l-1-26-3-3-1-6z" fill="#293758"/>
<path transform="translate(589,109)" d="m0 0h15l11 4 11 8 7 8 6 14 2 8-1 10-4 12-10 19-10 10-16 8-11 3-16 1-16-2-24-8-29-14-23-12-19-8-27-7-7-1h-14l-12 3-10 5-5 4-5 10v11l3 6 5 4 5-2 6-8h6l4 2 3 5v7l-8 9-4 2h-9l-12-6-6-7-4-10v-13l2-9 6-9 10-8 16-8 11-2h22l16 4 20 8 28 14 23 13 23 12 20 5h17l11-3 12-6 8-7 8-13 5-12 1-5v-10l-3-9-7-10-8-6-9-3h-12l-10 5-6 7-2 6v9l3 5 6 1 8-8 7 2 5 5 1 6-6 8-6 3h-10l-8-4-8-8-4-10v-13l4-10 4-5 11-7z" fill="#E1BE84"/>
<path transform="translate(1195,473)" d="m0 0h12l10 6 6 8 3 8 1 11-2 10-4 8-9 10-10 6-10 4-9 2h-19l-17-3-16-5-16-7-26-13-27-16-13-6-18-4h-17l-14 3-13 7-10 9-9 12-4 10-1 4v13l5 13 4 5 10 6 6 2h11l9-3 5-4 5-9v-8l-3-5-5-2-5 3-4 5-7-1-4-5 1-7 5-6 6-3h10l10 5 5 5 3 5 1 4v8l-4 11-6 8-7 6-10 4-12 1-12-3-10-6-8-8-6-12-2-10v-12l2-10 5-12 7-9 5-5 9-8 11-5 21-5h21l16 4 16 6 24 11 25 13 12 6 16 5 25 5h8l15-3 10-4 10-9 4-9v-9l-4-8-3-2-5 1-6 10-7-1-6-5-1-8 3-7 6-5z" fill="#E1BE84"/>
<path transform="translate(986,110)" d="m0 0h15l13 5 5 4 6 9 2 6v15l-4 8-8 7-7 3h-11l-8-4-5-7 1-7 5-5 3-2 5 1 7 11 5-1 4-5 1-3v-10l-4-7-8-5-6-2h-12l-10 4-8 6-7 14-1 10 3 10 8 15 8 9 15 10 11 4 10 1 16-2 17-6 17-8 44-24 21-9 17-5 7-1h19l13 3 12 6 10 9 7 9 3 8v11l-4 9-4 6-8 7-8 3-9-1-6-4-4-5-1-6 3-6 6-4 4 1 7 9 2 2 5-1 5-8 1-3v-11l-6-9-9-7-11-4-5-1h-21l-17 4-25 10-21 11-22 12-23 9-14 4-6 1h-23l-13-4-12-7-10-9-6-7-9-19-2-10 1-14 4-11 6-9 5-5 8-5z" fill="#E1BE84"/>
<path transform="translate(531,148)" d="m0 0 4 1 4 6 5 10 11 12 8 5 12 5 5 1h13l17-3-1 3-17 5-7 1h-10l-16-4-10-6-12-11-6-8-3-7v-8z" fill="#E1BE84"/>
<path transform="translate(1053,151)" d="m0 0 5 2 1 6-4 10-6 9-10 8-11 5-10 2h-20l-16-5v-1h25l12-2 14-7 8-8 6-10 4-8z" fill="#E1BE84"/>
<path transform="translate(1e3 502)" d="m0 0h10l16 2 12 5 9 6 7 7 6 10 2 6v7l-3 3-4-2-8-15-7-9-7-6-10-5-13-3h-16l-10 1 4-4 5-2z" fill="#E1BE84"/>
<path transform="translate(980,186)" d="m0 0 2 1z" fill="#FDFDFD"/>
</svg>
