<svg xmlns="http://www.w3.org/2000/svg" viewBox="0 149.81582366589325 1976.4357656731756 807.2018561484919" version="1.1" style="max-height: 500px" width="1976.4357656731756" height="807.2018561484919">
<path fill="#D3A85C" d="m0 0h41l8 16 10 18 11 20 6 10 2 5h2l2-6 13-26 10-21 7-12 4-3 24-1h16l-2 9-3 7v121l1 17 3 9 3 5v2h-50l1-5 3-7 2-84h-2l-10 17-14 26-7 11-4 1-5-6-8-14-9-15-12-21-2-1v64l2 21 3 13h-44l-2-2 5-9v-137l-1-11-4-8z" transform="translate(103,460)"/>
<path fill="#D3A85C" d="m0 0h46l8 17 10 17 11 19 9 12 9-17 12-20 10-21 4-7h44v3l-5 8-1 5-1 14v111l2 16 5 6-1 2h-50l1-7 3-4 1-6 1-73h-3l-11 20-9 14-9 12-2 2-5-1-13-18-7-11-9-17-4-1 1 69 2 13 3 6v2h-49l-1-3 7-10 1-9v-101l-1-25-7-12z" transform="translate(929,244)"/>
<path fill="#D3A85C" d="m0 0h42l-1 8-4 7v46l1 85 1 16 1 8h-28l-10-1-3-21-5-12-13-24-12-22-10-20-2-1v90l4 7 1 4h-45l2-6 3-7v-122l-1-21-4-6-4-5v-2h45l12 22 13 21 9 15 9 14v-59l-5-10v-3z" transform="translate(1399,460)"/>
<path fill="#D3A85C" d="m0 0h63l19 2 16 8 10 9 6 9 4 11 1 5v13l-3 12-8 13-4 5-8 6h-3l8 16 13 28 10 19 9 10 1 5h-48l-3-1-3-16-15-35-6-12-5-4h-12l2 50 2 7 4 5 1 5-1 1h-53l-1-2 8-11v-146l-4-10zm43 28-1 4v22l1 20 1 1h15l9-2 8-5 4-5 2-5v-13l-4-10-7-6-11-1z" transform="translate(821,685)"/>
<path fill="#D3A85C" d="m0 0h66l14 3 16 8 9 7 7 8 7 14 4 17 1 18-1 34-3 17-8 16-7 9-8 7-12 7-9 3-17 2h-58v-3l4-8 1-6 1-23v-90l-1-25-6-11zm47 29-4 1-1 21v25l1 55 1 9 1 1h9l12-2 8-5 6-7 4-11 2-21v-25l-2-19-6-12-8-6-8-3-6-1z" transform="translate(786,460)"/>
<path fill="#D3A85C" d="m0 0h29l15 1v17l5 21 20 72 12 41 4 8 7 9v2l-5 1h-36l-13-1 2-10 1-1v-7l-5-22-44-2-1 8-4 16v8l4 8v2h-52l2-5 7-11 5-12 9-35 12-41 11-46 1-10v-10zm13 44-9 35-4 20v2h28l-1-11-7-33-3-13z" transform="translate(1022,685)"/>
<path fill="#D3A85C" d="m0 0h55l1 1 1 18 9 34 7 25 7 28 10 34 6 18 7 10v2h-46l-5-1 1-7 1-1v-7l-5-25-44-1-4 18-2 10 1 7 1 6-2 1h-42l1-5 6-12 5-16 14-59 8-29 7-27 1-6zm26 42-2 5-10 48v6h27l-1-11-10-47z" transform="translate(315,460)"/>
<path fill="#D3A85C" d="m0 0h44l1 2-5 10-1 9v99l1 9 4 6 4 3 9 2 10-1 6-4 3-5 1-8v-99l-1-12-3-8v-3h20l27 1-2 6-4 6-1 6-1 88-1 27-4 11-6 9-9 9-11 6-16 3h-15l-12-2-12-5-6-4-5-4-9-13-3-10-1-9-1-22-1-88-6-12v-2z" transform="translate(1731,460)"/>
<path fill="#D3A85C" d="m0 0h55l1 2 1 17 9 36 8 30 16 57 6 17 5 8v3h-38l-11-1v-6l1-1-1-13-3-17v-4h-44l-2 11-3 16v7l3 5v3h-46l1-5 5-7 6-18 18-74 9-34 3-16zm27 47-3 2-6 28-4 24h27l-2-12-8-40z" transform="translate(1492,460)"/>
<path fill="#D3A85C" d="m0 0h57l1 19 5 24 11 39 6 24 12 43 4 10 7 8-1 3h-31l-19-1v-6l1-1v-11l-4-22-2-1h-42l-1 8-4 16v10l1 7-1 1h-41l-2-2 6-10 7-24 17-66 8-29 5-19zm26 44-3 9-6 26-3 21 1 1h26l-1-10-9-43-2-4z" transform="translate(676,460)"/>
<path fill="#D3A85C" d="m0 0h51l-1 6-6 10v100l2 14 4 6 5 3 4 1h11l8-3 4-6 1-3 1-19v-84l-1-13-6-12h50l-1 7-6 7-1 6-1 106-2 14-4 9-4 6-8 8-12 6-11 3h-22l-14-3-11-6-7-6-7-10-4-8-3-11-1-10-1-78-1-26-6-10z" transform="translate(921,460)"/>
<path fill="#D3A85C" d="m0 0h52l1 2-2 5-4 4-1 19v80l1 17 4 8 5 4 6 2h12l8-4 3-5 1-5v-111l-6-12v-4h47l1 2-5 8-3 5-1 120-2 9-5 9-6 7-10 7-11 4-6 1h-21l-12-2-12-5-9-7-7-8-7-16-1-8-1-95-1-17-7-9z" transform="translate(1175,460)"/>
<path fill="#D3A85C" d="m0 0h49v7l-1 3v10l10 45 6 29 5 20 2 4 3-12 6-27 6-25 7-32v-22h47l-2 4-6 10-7 23-6 24-8 29-11 43-6 25-2 10-5 1h-33l-7-1-6-29-12-45-12-43-8-29-5-12-4-7z" transform="translate(1576,461)"/>
<path fill="#D3A85C" d="m0 0 101 1 3 25v9l-7-1-8-4-19-2-25-1v39l31-1 2-3h9l1 13v22l-11-1-32-3v46l45-2 7-3 5-2h5l-3 31-1 3h-89l-13-1 4-8 2-5v-133l-2-7-5-10z" transform="translate(808,243)"/>
<path fill="#D3A85C" d="m0 0h19l1 1 3 29v8l-7-1-9-4-10-2-13-1v123l1 8 4 5 1 5h-50l1-5 4-7 1-8v-120h-15l-10 1-7 6-7 1 1-25 1-13z" transform="translate(496,459)"/>
<path fill="#D3A85C" d="m0 0h3l2 23v15l-9-3-2-2-12-2-16-1-1 72v23l1 25 2 12 4 7v2h-50l2-6 3-1 1-14v-118l1-2-27 2-5 5h-8l2-35 1-1z" transform="translate(1164,459)"/>
<path fill="#D3A85C" d="m0 0h15l6 3 6 7 1 2v10l-4 6-5 4-9-1-5-5-3-5-2-7-5 3-4 6-1 3v13l5 10 9 8 10 5 12 3 7 1h16l22-4 29-11 42-19 26-10 21-6 8-1h26l9 2 19 9 9 7 8 8 7 11 5 11 3 15v9l-3 12-7 12-8 8-8 5-14 4h-14l-13-4-8-6-6-8-5-11v-15l5-10 8-8 6-3 12-1 8 2 7 6 2 4v9l-3 5-5 3h-7l-6-5-3-5-3-1-5 3-3 6-1 9 3 8 4 5 8 4 7 2h13l11-4 5-4h2l2-4 5-9 2-9v-13l-4-12-7-11-8-6-14-4h-24l-11 3-10 5-10 8-7 9-9 17-4-2-3-4 1-8 6-11 7-8 11-8 16-8 10-3 18-2-10-3h-21l-15 3-21 7-25 11-28 13-26 10-25 7-6 1h-24l-15-4-17-9-9-9-7-12-2-9v-9l2-9 7-10 7-5z" transform="translate(482,682)"/>
<path fill="#D3A85C" d="m0 0h12l11 4 8 7 5 9 2 10-1 13-4 10-8 10-10 7-12 5-15 3h-21l-20-4-27-9-36-17-20-9-22-8-22-5h-23l-14 4 21 1 13 4 17 9 10 9 6 9 4 11v6l-4 6-4-2-8-16-6-9-7-7-9-6-9-3-6-1h-26l-10 3-8 6-7 8-5 12-1 6v9l2 9 6 10 8 7 12 4 11 1 10-2 8-5 4-6 1-3v-11l-3-8-5-4-4 2-6 10-4 3-6-1-7-6-1-2v-7l3-6 7-6 2-1h14l8 3 8 8 5 10 2 8-1 10-5 10-6 7-12 6-7 2h-17l-11-4-10-6-7-7-7-11-4-13v-13l4-16 6-12 12-13 14-9 11-5 12-3 7-1h22l18 3 20 7 20 9 27 13 25 11 15 5 23 4h20l17-4 10-5 7-7 4-8 1-3v-11l-4-10-3-3h-5l-7 13-4 3-7-1-7-6-2-3v-7l4-8 6-5z" transform="translate(1443,682)"/>
<path fill="#D3A85C" d="m0 0h17l12 5 10 8 8 11 4 10 2 9v15l-5 14-9 13-7 7-10 7-15 8-20 6-6 1h-13l-18-4-21-7-35-17-24-11-30-11-23-5h-21l-15 4-12 6-8 9-3 7v11l5 9 5 4 4-1 6-11 6-3 7 3 3 5v9l-5 8-8 4h-10l-9-3-7-5-6-10-2-7v-11l3-11 6-9 8-8 14-7 17-4 18-1 16 2 23 6 24 9 39 19 26 12 15 5 10 2h23l9-2 2-1-16-2-16-4-15-8-11-10-7-11-5-11v-6l5-4h4l5 13 6 9 3 3v2l4 2 10 7 17 6 14 1 16-2 9-4 6-4 7-8 5-12v-17l-5-12-6-7-8-5-11-3h-7l-9 3-7 5-5 9-1 9 3 7 5 5h2l2-10 4-4 5-1 8 3 4 4v9l-4 6-6 5-3 1h-13l-10-6-6-8-3-8v-13l4-9 7-8 7-6z" transform="translate(712,285)"/>
<path fill="#D3A85C" d="m0 0h32l-1 6-4 9v106l1 18h41l7-3 4-2h4v11l-3 21-2 4h-96l6-12 1-8v-126l-1-11-7-8-1-4z" transform="translate(544,460)"/>
<path fill="#D3A85C" d="m0 0 13 1 9 4 8 6 6 7 4 9v14l-5 10-4 5-9 6-11 2-8-2-7-6-2-4v-9l6-5h11l4 3 2 8 4-1 4-7 1-3v-8l-4-10-9-6-7-2h-9l-11 4-9 7-7 12-2 6v16l7 14 4 5 10 6 7 3 5 1h22l13-4 12-6 10-8 7-9 6-15 5 1 4 3-1 9-6 11-11 12-11 8-15 7-13 3-14 2 16 3h17l17-4 24-10 24-12 31-14 25-9 24-6 7-1h20l15 3 13 5 11 8 8 9 4 10 1 5v10l-3 10-5 8-7 6-6 2h-12l-8-4-6-8v-8l4-6 3-2h6l6 5 2 5v7l8-4 6-7 2-8-2-11-6-9-8-6-9-4-12-3-7-1h-17l-19 3-16 5-25 10-25 12-16 8-22 9-22 6-9 2h-20l-12-3-14-6-16-12-10-10-8-15-3-9-1-8v-10l3-12 6-10 9-10 11-6z" transform="translate(1181,285)"/>
</svg>