<?xml version="1.0" encoding="UTF-8"?>
<svg version="1.1" viewBox="0 0 1417 1600" width="604" height="682" xmlns="http://www.w3.org/2000/svg">
<path transform="translate(0)" d="m0 0h1417v1600h-1417z" fill="#FCFCFC"/>
<path transform="translate(386,292)" d="m0 0h22l13 3 13 6 11 6 9 7 7 8 1 3h2v2l11 3 13 5 8 4 16 9 11 9 10 10 12 17 10 20 2 16 1 25v76l8 7 4 5 4 9 1 4v10l-3 14-6 13-8 13-4 6-3 16-7 9-2 6 9 11 12 13-1 4-11 9-12 11-1 2-4-1-10-10-9-11-2-1-8 7-15 15 16 8 16 10 10 8 28 28 13 10 13 13 10 13 2 4 8 11 2 1 8-48 1-7-3-3 1-7 3-12 2-16v-39l-6-9 2-9 4-6 2-9 1-17 1-6 9 1 10 6 7 8 1 2v11l-1 3h-2v5l12-4 6-4 1-2h2l1-5 9-13 5-6 7-5h8l1 1 14-1 6 3 7 7 2 3-1 6-10 18-11 20-9 12-14 11-18 11 2 24v50l-4 26-6 21-10 21-8 12-9 10-5 3-5-3-14-5-25-12-16-10-17-13-6-4-1-2-3-1-1-2-4-2v-2l-6-2-3 13-12 57-6 30v18l4 10 2 9-1 9-3 7v8l8 57 4 35 1 12v37l-1 40-3 42-3 54-5 58-2 14-4 12-9 17-10 14-2 3h-2l7 8 8 7 15 14 8 7 18 18 4 7-1 6-5 4-12 3h-17l-16-4-12-6-7-8-6-10-6-7-13-8-3-3-1-3v-9l9-21 2-5 1-6v-11l-2-16-4-16-7-19-2-10-5 5-12 13-7 8-15 15-8 7-13 12-7 6 2 16 5 17 1 2v7l-7 9h-2v39l-4 9-7 6-16 4h-18l-8-3-6-5-2-3v-13l5-12 23-35 7-15 1-4-12 4h-4l-6-10-8-13-7-15-5-15-3-17v-24l7-48 5-39 2-32v-29l-1-7-3-1-1 22-5 54-2 6-14 5h-2v8l1 10-2 4-3 1h-12l-18-2-4 8-14-2-13-4-8-4-7-5-2-3 1-9 11-33 9-36 9-42 10-56 9-60 4-29 1-3-9-3-14-7-18-11-10-8-7-7-6-9-4-13 1-11 4-15 5-12 10-19 8-15 1-7 6-11 6-9 3-6h2l2-4 5-5 9-10 8-9 12-16 2-2-1-4-3-5 2-4 10-8 11-7 12-9 20-12 16-9 12-6 5-2-2-4-19-14-13-12-7-8-11-15-4-4-1 6-8 18 1 4 10 11 2 3-1 4-9 7-13 12-3 2-4-1-8-9v-2l-9 5-16 8-16 5h-24l-21-4-25-4-2 4-9 7-10 6h-7l-4-3v-2l-8-4-9 10-10 14-6 13-3 9-2 12v13l1 4-5-1-2-3-1-43 5-13 8-11 11-12 4-3 1-12 5-5 8-4 12-5h8l7 6 3 5 20 1 8 1h36l16-6 11-7 10-12 5-11 5-19 1-11-11-21-5-17v-17l4-11 8-9 3-2v-16l-2-36v-46l3-17 4-15 8-16 6-10 10-13 12-12 5-2v-2l18-12 16-8 24-8 15-2z" fill="#B49679"/>
<path transform="translate(808,1198)" d="m0 0 9 3 14 5 7 3 18 5 16 3 22 3 20 1h34l36-2 13-2 10-2 9-1 11-3 15-3 16-4 21-6h5l3 23v6l-8 5-24 8-7 2h-4v2h-2l2 52 1 29 1 15 20 3 46 6 50 8 37 7 34 8 24 7 25 9 19 9 14 10 7 8 4 8-1 7-7 9-10 9-14 8-15 7-33 11-44 11-48 9-39 6-56 7-53 5-47 4-49 3-63 3-27 1-87 1h-50l-71-1-89-4-48-3-61-5-58-6-59-8-57-10-31-7-30-8-21-7-18-8-13-7-9-7-7-7-3-6v-12l4-6 7-7 14-9 14-7 19-7 34-10 49-11 58-10 13-2 9 1 1 4 13-4h3l-1 6-8 16-19 29-6 12-1 3v13l5 6 6 3 4 1h18l16-4 7-6 3-8 1-39h2l2-4 4-5v-7l-5-15-2-8-1-12 15-14 8-7 15-14 11-11 7-8 10-12h2l9 27 3 8 3 16 1 10v11l-2 9-9 20-1 3v9l3 5 14 9 7 8 7 12 7 6 11 5 14 3h17l12-3 5-5-1-6-6-8-20-20-8-7-24-22v-2h2l2-4 10-15 3-4v2l33-2 55-2 85-2h86l104 2 10 1-5-51-3-26v-5h5v-2l-11-2-15-5-12-5-16-6v-2l-6-2z" fill="#D5D6D6"/>
<path transform="translate(961,221)" d="m0 0h6v26l-1 29v25l8 2 7-16 13-27 8-21v-2l-2-3v-12l10 3 23 11 16 12 12 12 8 10 10 15 18 36 12 6 13 9 7 7v2h2l8 14 5 13 2 10v28l-5 26 1 9 1 6v23l-3 21-6 17-9 17-9 11-4 4 1 23-2 14-6 12-6 7h-2l1 7v63l-3 30-6 36-1 10 4 9v2h2l4 8 4 11 4 8 4 11 3 10 1 4h-20l-11-4-6-5v-2l-4-2-4-9-2-8-1-11v-15l3-25 1-9-7-11-14-18-11-12-7-7-15-11-2 4-8 24-4 7-1 4h-2l-3 9-1 2h-2l-1 5h-2l-1 4-5 8h-2l-1 4-13 16-12 17-13 13-12 7 2 7 11 25 9 17 11 18 10 13 8 10 4 7 2 22 1 20-21 7-29 6-9 1 3 38 4 38 3 34 5 51 5 53v15l-8 4-16 4h-17l-17-5-6-4-2-3v-30l2-28 2-63 1-22v-12l-3 34-5 77-3 24-2 2h-20l-11-3-7-4v-12l4-22 11-68 8-50 8-49 1-7-20-8-2-3v-32l1-18 6 1 15 7 21 6 15 2-8-11-15-28-16-33-12-31-1-2v-8l8-13 3-7-6 1h-8l-12-3-16-7-10-6-4-4 1-5 25-25 1-2h2l-2-16v-13l-4 2-10 14-1 2-2 14-5 13-2 4h-2l-2 5-8 8-3 2h-3v2l-4 2h-3l-5-17-1-5v-22l4-23 10-40 11-35 7-19 6-18-9-11-6-13-2-8v-12l4-14 7-12 4-4h2l2-4 6-3-1-4-8-14-8-20-2-11v-29l5-15 5-11v-25l3-16 3-10 6-12 2-5 11-12 9-6 14-5 15-1 5-5 10-16 10-11 4-5 14-11 15-8 13-4z" fill="#DE9C7F"/>
<path transform="translate(386,292)" d="m0 0h22l13 3 13 6 11 6 9 7 7 8 1 3h2v2l11 3 13 5 8 4 16 9 11 9 10 10 12 17 10 20 2 16 1 25v76l8 7 4 5 4 9 1 4v10l-3 14-6 13-8 13-4 6-3 16-7 9-2 6 9 11 12 13-1 4-11 9-12 11-1 2-4-1-10-10-9-11-2-1-8 7-15 15 16 8 16 10 10 8 28 28 13 10 13 13 10 13 2 4 8 11 2 1 8-48 1-7-3-3 1-7 3-12 2-16v-39l-6-9 2-9 4-6 2-9 1-17 1-6 9 1 10 6 7 8 1 2v11l-1 3h-2v5l12-4 6-4 1-2h2l1-5 9-13 5-6 7-5h8l1 1 14-1 6 3 7 7 2 3-1 6-10 18-11 20-9 12-14 11-18 11 2 24v50l-4 26-6 21-10 21-8 12-9 10-5 3-5-3-14-5-25-12-16-10-17-13-6-4-1-2-3-1-1-2-4-2v-2l-6-2-2-4-12-3-25-10-11-6-3 1-7 11-4 2v2h-2l1 5 6 11v11l-4 8-7 6-3 1-8-5-6-11v-12l1-5-11-1-12-5-11-9-12-15-12-20-8-16-6-15-13-37-6-8-7-6 1-2 14-6-2-4-19-14-13-12-7-8-11-15-4-4-1 6-8 18 1 4 10 11 2 3-1 4-9 7-13 12-3 2-4-1-8-9v-2l-9 5-16 8-16 5h-24l-21-4-25-4-2 4-9 7-10 6h-7l-4-3v-2l-8-4-9 10-10 14-6 13-3 9-2 12v13l1 4-5-1-2-3-1-43 5-13 8-11 11-12 4-3 1-12 5-5 8-4 12-5h8l7 6 3 5 20 1 8 1h36l16-6 11-7 10-12 5-11 5-19 1-11-11-21-5-17v-17l4-11 8-9 3-2v-16l-2-36v-46l3-17 4-15 8-16 6-10 10-13 12-12 5-2v-2l18-12 16-8 24-8 15-2z" fill="#DF9C7F"/>
<path transform="translate(700,71)" d="m0 0h17l10 3 14 7 9-6 9-3 6-1h17l11 3 12 6 8 7 6 10 17 7 10 8 7 11 1 3v15l-1 7 7 11 3 8v15l-4 10-6 8-7 7-9 6-16 6-11 1v7l-6 11-9 9-16 8-6 2-7 1h-22l-16-4-2 5-7 8-9 7-12 6-12 3-7 1h-23l-15-4-14-7-7-6h-9v2l4 2 3 7v9l-3 7-4 5-9 4-3 6-6 5-7 2-7-1-4-5-1-6v-8l4-6 2-15 2-3h-10l-14-3-10-3-12-6-9-7-6-6-15-1-10-3-11-7-6-7-3-7v-14l6-10-2-4-8-7-4-7-1-3v-13l6-10 10-8 13-5h6v-13l6-13 9-10 14-9 15-5 13-2h14l16 3 7 2 9-8 11-6 12-3h21l16 5 6 3 4-2 8-6 8-4z" fill="#FBFBFB"/>
<path transform="translate(295,795)" d="m0 0 3 3 15 46 8 22v49l-1 14 4 2 15 10 19 10 25 9 19 5 4 3 4 18 11 70 8 62 6 60 3 39v15l-3 6-7 7-8 7-14 12-10 8-21 16-16 10-16 9-21 8-11 2-2-1-5-15-3-17v-24l7-48 5-39 2-32v-29l-1-7-3-1-1 22-5 54-2 6-14 5h-2v8l1 10-2 4-3 1h-12l-18-2-4 8-14-2-13-4-8-4-7-5-2-3 1-9 11-33 9-36 9-42 10-56 9-60 4-29 1-2 7 1 9 3 11 1-1 8 3 6 8 7h10l8-18-2-5-4-8-3-7-8-9-10-13-5-6-8-7-8-10-1-3 4-43 7-8 7-7 5-8z" fill="#008DC9"/>
<path transform="translate(1096,602)" d="m0 0h1l1 5v63l-3 30-6 36-1 10 4 9v2h2l4 8 4 11 4 8 4 11 3 10 1 4h-20l-11-4-6-5v-2l-4-2-4-9-2-8-1-11v-15l3-25 1-9-7-11-14-18-11-12-7-7-15-11-2 4-8 24-4 7-1 4h-2l-3 9-1 2h-2l-1 5h-2l-1 4-5 8h-2l-1 4-13 16-12 17-13 13-12 7 2 7 11 25 9 17 11 18 10 13 8 10 4 7 2 22 1 20-21 7-29 6-9 1 3 38 4 38 3 34 5 51 5 53v15l-8 4-16 4h-17l-17-5-6-4-2-3v-30l2-28 2-63 1-22v-12l-3 34-5 77-3 24-2 2h-20l-11-3-7-4v-12l4-22 11-68 8-50 8-49 1-7-20-8-2-3v-32l1-18 6 1 15 7 21 6 15 2-8-11-15-28-16-33-12-31-1-2v-8l8-13 3-7-6 1h-8l-12-3-16-7-10-6-4-4 1-5 25-25 4-3 3 1 6 10 7 7 14 7 4 1 19 1 6 7v2h2v2l4 2 6 4 7 1 2-4 11-9 10-10 9-11 9-12 2-1 1-4-14 6-7 2h-7l2-5 4-8 3-14 4-4 25-12 17-12 2-2-1-8 25-14 16-12 9-6 1 4 16 8 2 4-4 6v5l2 5-9 5-4 6-1 7 4 8 3 2 3-1-1-4 4-4 5-3 3-5-2-9-2-2 4-1 2-3v-13l5-4 13-5z" fill="#FE7A0A"/>
<path transform="translate(847,920)" d="m0 0 5 1 18 7 1 4-4 21-10 64-4 25-13 79-2 16 4 2 9 3 5 1h20l1-1 3-24 6-90 2-21 2-2v14l-2 55-2 49-1 9v30l5 5 15 5 4 1h17l18-5 5-2v-15l-8-86-4-37-2-22-6-65 1-5 20-3 25-6 14-5 4 4 14 21 9 16 8 15 11 25 13 36 9 29 9 34 9 42 9 51-3 3-11 4-18 5-34 7-2 1-17 2-2 1-13 2-36 2h-34l-20-1-30-4-20-5-12-4-10-4-12-5-2-2 1-16 5-51 6-56 7-54 7-40 10-48z" fill="#77F5F2"/>
<path transform="translate(1e3 222)" d="m0 0 10 3 23 11 16 12 12 12 8 10 10 15 18 36 12 6 13 9 7 7v2h2l8 14 5 13 2 10v28l-5 26 1 9 1 6v23l-3 21-6 17-9 17-9 11-4 4-4-1-7-6-13-5-9-1v-5l2-5-5-12-14-25-8-13-4-5-2-3-10-13-12-14-18-18-13-10-16-11-13-8 2-4 5-4 7-11 5-14 2-11v-12l-3-14-6-10-5-5 7-15 14-29 8-21v-2l-2-3z" fill="#EF5279"/>
<path transform="translate(1015,659)" d="m0 0 11 7 13 12 8 8 13 17 9 12 2 4-1 9-3 25v15l2 15 3 8 3 6 5 5 7 4 7 2 20 1 2 2 5 24 3 21 1 13v14l-6 8-9 8-16 8-8 2-7 1h-12l-3-12-6-27-8-24-9-19-12-18-3 3-11 20-14 23-11 16-4 5h-3l-11-14-13-18-13-23-9-19-6-13-1-6 14-9 12-12 12-17 13-16 1-3h2l6-12h2l1-5h2l3-9 1-2h2l1-5 6-14 6-20z" fill="#77F5F2"/>
<path transform="translate(276,724)" d="m0 0 7 6 10 13 12 15 14 19 15 22 10 14 11 17 8 13 10 17 17 32 14 29 5 9v2h-12l-23-4-14-5-18-10-10-7-4 1-7 3-1-44-14-40-10-30-3 4-7 14-9 10-7 8-4 44 6 8 8 9 6 5 10 13 12 15 4 11 3 4-3 9-6 12h-10l-10-9-2-7 2-6h-11l-18-6-12-5-24-14-12-9-8-8-6-9-4-13 1-11 4-15 5-12 10-19 8-15 1-7 6-11 6-9 3-6h2l2-4 5-5 9-10 8-9 12-16z" fill="#DF9D80"/>
<path transform="translate(808,1198)" d="m0 0 9 3 14 5 7 3 18 5 16 3 22 3 20 1h34l36-2 13-2 10-2 9-1 11-3 15-3 16-4 21-6h5l3 23v6l-8 5-24 8-34 9-31 5-8 1-51 1v35l-1 22v105l-2 9-3 6-8 3-7 4-14 14-5 3-5 1h-13l-26-6-12-5-6-6-1-9 2-9 3-1 5 6 6 3h6l6-4 18-14 3-1-3-49-3-38-8-73v-5h5v-2l-11-2-15-5-12-5-16-6v-2l-6-2z" fill="#D8C7BD"/>
<path transform="translate(342,667)" d="m0 0 5 1 8 8 4 8 14 40 10 22 12 20 10 13 6 7 10 7 10 4 11 2v17l6 11 8 4 6-4 5-7 1-3v-11l-6-11-1-3 1-2h2v-2l5-5 7-10 5 2 17 8 22 8 7 2-1 12-14 67-5 25-1 22-5 4-12 5-19 5-6 1h-12l-12-17-12-18-12-19-14-24-14-25-13-24-14-22-14-19-13-15-9-10-10-11-8-7-13-11-10-7 4-4 18-13 20-12z" fill="#0082BC"/>
<path transform="translate(961,221)" d="m0 0h6v26l-2 54-9 3-10 7-3 5h-2l-2 6-6 13-2 12v14l4 17 4 6v2l-20 8-21 10-16 10-12 9-10 8-12 11-3 4-2 3-4 2-5 12-4 14-4-2-8-14-8-20-2-11v-29l5-15 5-11v-25l3-16 3-10 6-12 2-5 11-12 9-6 14-5 15-1 5-5 10-16 10-11 4-5 14-11 15-8 13-4z" fill="#EF5279"/>
<path transform="translate(691,597)" d="m0 0h8l1 1 14-1 6 3 7 7 2 3-1 6-10 18-11 20-9 12-14 11-18 11 2 24v50l-4 26-6 21-10 21-8 12-9 10-5 3-5-3-14-5-25-12-16-10-17-13-6-4-1-2-3-1-1-2-4-2v-2l-6-2v-7l4-13 7-14 8-11 7-8 6-6 4 1 10 8 12 12 10 13 2 4 8 11 2 1 8-48 1-7-3-3 1-7 3-12 2-16v-39l-6-9 2-9 4-6 2-9 1-17 1-6 9 1 10 6 7 8 1 2v11l-1 3h-2v5l12-4 6-4 1-2h2l1-5 9-13 5-6z" fill="#DF9D80"/>
<path transform="translate(871,929)" d="m0 0 24 5 20 2h15l2 28 4 42 3 32 4 38 7 75v15l-8 4-16 4h-17l-17-5-6-4-2-3v-30l2-28 2-63 1-22v-12l-3 34-5 77-3 24-2 2h-20l-11-3-7-4v-12l4-22 11-68 8-50 8-49z" fill="#EE5379"/>
<path transform="translate(259,935)" d="m0 0 7 1 9 3 11 1-1 8 3 6 8 7 9 1-3 27v45l5 32 3 20v40l-5 54-2 6-14 5h-2v8l1 10-2 4-3 1h-12l-18-2-4 8-14-2-13-4-8-4-7-5-2-3 1-9 11-33 9-36 9-42 10-56 9-60 4-29z" fill="#006187"/>
<path transform="translate(470,1019)" d="m0 0 5 1 11 11 7 8 19 19 8 7 2 2v32l-1 40-3 42-3 54-5 58-2 14-4 9-8-4-14-12-7-7-10-13-12-22-6-15 7-25 5-24 6-39 3-30 2-48z" fill="#008DC9"/>
<path transform="translate(1041,1243)" d="m0 0 3 1h-2l2 52 1 29 2 30 5 41 1 14 6 8 12 11 6 5 5 1 10-4 4-2 5 1v9l-4 8-3 3-10 4-15 3-12 2h-11l-9-2-8-5-4-4-3-6-1-3-4-2-9-4-5-5-4-16-5-29-5-44-5-24-9-50-1-9h-32v-1l40-1 34-5z" fill="#D8C7BD"/>
<path transform="translate(295,795)" d="m0 0 3 3 15 46 8 22v49l-1 14 4 2 15 10 19 10 25 9 10 3v2l2 1-9 20-11 20-9 12-11 9-12 6-9 2h-21l-10-3-1-1-1-7v-35l2-18 2-9 8-16 1-5-5-8-3-9-9-10-10-13-5-6-8-7-8-10-1-3 4-43 7-8 7-7 5-8z" fill="#009DD3"/>
<path transform="translate(219,799)" d="m0 0 18 6 21 10 12 8 1 2 3 2-4 5-4 44 6 8 8 9 6 5 10 13 12 15 4 11 3 4-3 9-6 12h-10l-10-9-2-7 2-6h-11l-18-6-12-5-24-14-12-9-8-8-6-9-4-13 1-11 4-15 5-12 10-19 8-15z" fill="#DF9D80"/>
<path transform="translate(1096,602)" d="m0 0h1l1 5v63l-3 30-6 36-1 10 4 9v2h2l4 8 4 11 4 8 4 11 3 10 1 4h-20l-11-4-6-5v-2l-4-2-4-9-2-8-1-11v-15l3-25 1-9-7-11-14-18-11-12-7-7-18-13-12-9-9-6v-2h-2l-1-5 25-14 16-12 9-6 1 4 16 8 2 4-4 6v5l2 5-9 5-4 6-1 7 4 8 3 2 3-1-1-4 4-4 5-3 3-5-2-9-2-2 4-1 2-3v-13l5-4 13-5z" fill="#18191A"/>
<path transform="translate(386,292)" d="m0 0h22l13 3 13 6 11 6 9 7 7 8 2 4-12-1-16-2h-25l-23 4-20 6-18 8-14 9-13 11-11 12-10 15-8 17-5 15-6 25-2 21v42l-2 1-12-2-2-15-2-36v-46l3-17 4-15 8-16 6-10 10-13 12-12 5-2v-2l18-12 16-8 24-8 15-2z" fill="#191A1B"/>
<path transform="translate(808,1198)" d="m0 0 9 3 14 5 7 3 18 5 16 3 22 3 20 1h34l36-2 13-2 10-2 9-1 11-3 15-3 16-4 21-6h5l3 23v6l-8 5-24 8-34 9-31 5-8 1h-59l-31-4-24-5-26-8-12-5-16-6v-2l-6-2z" fill="#FC6E07"/>
<path transform="translate(833,671)" d="m0 0h3l1 5 1 24h-2l-2 4-24 24 1 5 5 4 15 8 14 5 6 1h14l-1 5-8 14-1 1v8l8 20 7 17 16 33 14 26 6 7v2h-11l-22-6-12-5-12-6-2-9-9-45-1-6v-10l-6 3-10 6-6 2h-10l-12-5-9-7-9-13-3-7v-10l4-13 7-11 3-3 8-2v-2l7-4 7-7 2-4h2l7-21 1-10 8-12z" fill="#77F5F2"/>
<path transform="translate(991,641)" d="m0 0 1 2 5 2 12 9 6 5-4 14-5 15-4 7-1 4h-2l-3 9-1 2h-2l-1 5h-2l-1 4-5 8h-2l-1 4-13 16-12 17-13 13-12 7-14 1 1 13-2 7-10 11-4-4-4-7-4-20 4-1 1-5-4-5v-2h-2l-7-11-2-1-6-24-1-9 1-1h14l6 7v2h2v2l4 2 6 4 7 1 2-4 11-9 10-10 9-11 9-12 2-1 1-4-14 6-7 2h-7l2-5 4-8 3-14 4-4 25-12 17-12z" fill="#FB971F"/>
<path transform="translate(283,704)" d="m0 0 7 4 11 9 12 11 7 6 7 8 12 13 9 11 14 19 12 19 16 29 15 27 12 20 12 19 12 18 8 11 3 4v2h11l-2 4-15 2h-28l-9-2-8-4h-10l-8-3-5-2 4-1 15 3 12 1-17-33-9-19-12-22-13-22-22-33-10-14-11-16-9-12-22-28-7-8-6-9 2-4z" fill="#B39679"/>
<path transform="translate(1050,465)" d="m0 0 4 4 8 14 10 17 8 15 2 8-2 3-1 5h9l13 5 10 8 2 18-1 15-4 11-4 6-5 6h-2l-2 4-16 9-11 4-2 2v13l-4 5v1l2 9-5 7-5 3h-2l1 7-4 1-5-4-3-7 1-7 6-8 6-3h2l-3-5 1-7 3-4-2-4-12-6-4-4-1-3 6-8-3 1h-9l-6-5-1-7 6 1 1 1h5l4-6 3-12 1-51 3-46z" fill="#B88664"/>
<path transform="translate(397,990)" d="m0 0 2 2-1 12-7 39-6 24-5 14-8 16-7 9-7 8-10 7-11 6-1 7v24l8-2 15-9 7-6 8-10 8-13 8-16 6-16 10-29h2v14l-4 31-6 26-6 17-9 19-9 11-7 7-9 6-12 4-6 1h-23l-5-2 1-18 2-32v-29l-1-7-3-1v-7l4-1 6-2 17-6 14-7 6-5 12-16 8-14 8-20 10-35z" fill="#009ED4"/>
<path transform="translate(849,868)" d="m0 0 6 1 15 7 21 6 14 2h26l29-2 19-3 6-1 2 11 2 34-21 7-29 6-11 1h-13l-20-2-23-5-22-9-2-3v-32z" fill="#C81B1C"/>
<path transform="translate(285,953)" d="m0 0 4 2 7 6 9 1-3 27v45l5 32 3 20v40l-2 21-1 3-24 6-3 8-5 3-11 2h-11v-8l7-34 8-41 6-44 5-44 2-18 1-17 2-9z" fill="#00729A"/>
<path transform="translate(700,71)" d="m0 0h17l10 3 14 7 9-6 9-3 6-1h17l11 3 12 6 8 7 6 10 17 7 10 8 7 11 1 3v15l-1 7 7 11 3 8v15l-4 10-6 8-7 7-9 6-16 6-11 1v7l-6 11-9 9-16 8-6 2-7 1h-22l-16-4-2 5-7 8-9 7-12 6-12 3-7 1h-23l-15-4-14-7-7-6h-9v2l4 2 3 7v9l-3 7-4 5-9 4-3 6-6 5-7 2-7-1-4-5-1-6v-8l4-6 2-15 2-3h-10l-14-3-10-3-12-6-9-7-6-6-15-1-10-3-11-7-6-7-3-7v-14l6-10-2-4-8-7-4-7-1-3v-13l6-10 10-8 13-5h6v-13l6-13 9-10 14-9 15-5 13-2h14l16 3 7 2 9-8 11-6 12-3h21l16 5 6 3 4-2 8-6 8-4zm-2 5-11 4-9 6-7 10-3 1 1-8-12-5-8-2h-20l-12 3-10 5-7 6v2l7 4 1 3-9-3-5-3-19-5h-21l-16 4-15 8-8 7-6 9-2 7v16l2 5-4-1-1-3h-7l-10 3-10 7-4 6-2 11 3 9 7 8 5 3 9 2 1 1 16 2 1 3-15-1-3-1h-7l-6 7-2 5v10l5 8 9 8 14 5h14l11-3-1 4-6 1v2l11 9 16 8 11 3 7 1h17l5-2 14-1 8-3-3-8 5 3 7 9 9 6 10 5 16 4h21l11-3 14-5 11-8 7-8 4-10 2-6 3-1-1 10 8 3 7 2h20l18-6 10-6 8-9 4-9-1-15-6-10-9-8-10-5h-3l1-3 5 1 10 5 10 9 6 12 1 6 11-2 8-3 14-7 9-9 6-12v-16l-4-10-5-6h-2l-4 5-5 4-3 1 2-5 6-5 5-8 2-5v-9l-4-10-6-7-12-7-9-2-4 2-2-10-6-8-9-6-14-5h-19l-10 2-10 5-10 9-3 1 3-7v-3l-10-5-9-2z" fill="#232627"/>
<path transform="translate(842,448)" d="m0 0 1 3-6 30-2 17-2 34-1 11 3 3 19-1 22-2h21l3 6 6 5 9 4h9l10-5 4-4 4 1 40 14 11 3h14l8-5 2-1-2 5-9 10-11 8-11 5-7 2-8 1h-11l-14-1-9 10-8 5-7 2h-17l-11-4-5-5-5-7-6-15-13-1-16-5-10-7-7-8-4-10v-5l3-1 1-12v-12l-1-11v-28l6-20 5-8z" fill="#181919"/>
<path transform="translate(691,597)" d="m0 0h8l1 1 14-1 6 3 7 7 2 3-1 6-10 18-11 20-9 12-14 11-18 11-7 1h-15l-11-2-10-4-2 4-1-31-6-9 2-9 4-6 2-9 1-17 1-6 9 1 10 6 7 8 1 2v11l-1 3h-2v5l12-4 6-4 1-2h2l1-5 9-13 5-6z" fill="#DF9D81"/>
<path transform="translate(820,560)" d="m0 0 4 2 7 8v2l-4 4-2 3v8l10 1 2-5v-7h2l8 25 6 32v11l-7 15-14 14-10 14-1 2-2 14-5 13-2 4h-2l-2 5-8 8-3 2h-3v2l-4 2h-3l-5-17-1-5v-22l4-23 10-40 11-35 7-19 6-17z" fill="#19191A"/>
<path transform="translate(476,1044)" d="m0 0 6 2 12 16 3 3v2h2l9 11 5 3 7 2 2 1v15l-1 40-3 42-3 54-5 58-2 14-1 3h-2l-6-17-12-23-6-16-8-30-4-24-2-25v-22l2-5 3 3 1 17 4 12 4 11 6 25 7 16 8 16 3 4h2l1-8v-19l-4-13-7-19-9-21-4-13-3-20-2-26 1-21 1-3 3 1 8 19 9 15 8 11 4 1v-17l-7-12-7-11-8-11-7-13-6-19v-2h-2z" fill="#009DD3"/>
<path transform="translate(329,905)" d="m0 0 4 1 16 10 16 8 25 8 1 1h10l8 4 9 2h29l14-2 3-4 18-4 15-5 8-5 2-4 4 10 2 9-1 9-3 7v8l4 27v8l-8-4-11-9-13-12-4-4-10 1-19 3h-34l-10-1-13-4-20-6-19-8-18-10-11-8-3-2v-14l2-6z" fill="#876752"/>
<path transform="translate(358,661)" d="m0 0 3 1 4 8 2 8 10 21v2h2l6 12 13 18 12 12 11 7 11 4 8 1 12-2 8-6 5-8 3-8 2-12v-30l1-1h5l2 3 3 25 1 11v21l-3 16-6 15-7 9h-2v2h-2l1 5 6 11v11l-4 8-7 6-3 1-8-5-6-11v-12l1-5-11-1-12-5-11-9-12-15-12-20-8-16-6-15-13-37-6-8-7-6 1-2z" fill="#F79623"/>
<path transform="translate(291,699)" d="m0 0h2l2 5 11 4 12 8 10 8 13 11 22 24 11 13 12 16 14 19 11 16 13 18 14 20 14 19 14 18 9 11 11 14 1 5-8 3-15 3h-12l-12-17-12-18-12-19-14-24-14-25-13-24-14-22-14-19-13-15-9-10-10-11-8-7-13-11-10-7 4-4z" fill="#0073AD"/>
<path transform="translate(266,588)" d="m0 0 4 4 1 8 4 7 7 9-6 7-8 7-10 9-1 5 7 9 2 1-1 5-8 5-13 6-16 5h-24l-21-4-25-4-2 4-9 7-10 6h-7l-4-3v-2l-8-4-9 10-10 14-6 13-3 9-2 12v13l1 4-5-1-2-3-1-43 5-13 8-11 11-12 4-3 1-12 5-5 8-4 12-5h8l7 6 3 5 20 1 8 1h36l16-6 11-7 10-12 5-11 5-19z" fill="#1B1C1D"/>
<path transform="translate(410,1145)" d="m0 0 3 1-3 22-7 32-6 20-10 23-6 11-12 16-10 10-13 9-16 8-13 4-9 1-3-2v-4h-2l-2-12v-24l2-15 3-3 10-2 20-2 13-4 10-6 12-11 10-11 9-14 8-16 6-16 4-13z" fill="#009DD3"/>
<path transform="translate(452,1301)" d="m0 0 3 2 7 16 7 11 7 10 6 10v5l17 16 12 11 8 7 18 18 4 7-1 6-5 4-12 3h-17l-16-4-12-6-7-8-6-10-6-7-13-8-3-3-1-3v-9l9-21 2-5 1-6v-11l-3-24z" fill="#DE9C7F"/>
<path transform="translate(259,935)" d="m0 0 7 1 13 4v2h-2l-3 17-3 34-4 29-6 36-6 35-5 24-8 40-3 17-2 1-14-5-6-4-1-2 10-40 9-42 10-56 9-60 4-29z" fill="#00729A"/>
<path transform="translate(295,795)" d="m0 0 3 3 15 46 8 22v49l-1 14 3 1-4 1-2 9-3 1-5-8-3-9-9-10-10-13-5-6-8-7-8-10-1-3 4-43 7-8 7-7 5-8z" fill="#006288"/>
<path transform="translate(369,1332)" d="m0 0 3 1 2 14 5 17 1 2v7l-7 9h-2v39l-4 9-7 6-16 4h-18l-8-3-6-5-2-3v-13l5-12 23-35 7-15 2-6 16-12z" fill="#DD9B7E"/>
<path transform="translate(960,301)" d="m0 0 9 1 7 4 6 7 4 10 2 10v12l-3 15-6 14-8 10-5 4-7 3h-8l-10-4-5-6-3-6-3-14v-14l2-12 9-19h2l2-5 12-9z" fill="#FE850D"/>
<path transform="translate(931,1256)" d="m0 0h43l8 41 6 34v4h-24l-26-1-8-1v-42z" fill="#FDFDFD"/>
<path transform="translate(808,1198)" d="m0 0 9 3 14 5 7 3 4 1 1 4 24 8 17 3 12 1h45l17 1 9 2 3 3-1 5-3 9-9 4-14 2-3 2h-8l-3-1h-23l-30-5-25-7-14-5-7-3-16-6v-2l-6-2z" fill="#FE7A0A"/>
<path transform="translate(435,424)" d="m0 0 33 4 11 1h45v9l-3 1 3 2v10l-1 5-23 1h23v12l-10 1-36 1-19-2-22-4-2-1v-12l16 2h2l-16-3-2-1v-13z" fill="#E9CCB4"/>
<path transform="translate(437,1265)" d="m0 0h2l9 27 3 8 3 16 1 10v9l-1 1-75 6h-6l-1-1-1-10 15-14 8-7 15-14 11-11 7-8z" fill="#FCFCFC"/>
<path transform="translate(919,784)" d="m0 0h11l5 12 11 24 11 20 8 12 9 12 8 10 2 4-9 3-25 3h-9l-9-15-14-26-11-23-1-5 9-10 2-7v-13z" fill="#EF5379"/>
<path transform="translate(296,962)" d="m0 0h9l-3 27v45l5 32 3 20v40l-2 21-1 3-24 6-3 8-5 1 3-23 5-35 4-35 1-6 2-31 5-58z" fill="#00729B"/>
<path transform="translate(877,1411)" d="m0 0 8 1 9 2h16l14-3h5v14l-4 8-8 3-7 4-14 14-5 3-5 1h-13l-26-6-12-5-6-6-1-9 2-9 3-1 5 6 6 3h6l6-4 18-14z" fill="#FAB030"/>
<path transform="translate(1044,1409)" d="m0 0h5l10 9 12 11 6 5 5 1 10-4 4-2 5 1v9l-4 8-3 3-10 4-15 3-12 2h-11l-9-2-8-5-4-4-3-6-1-3-4-2-9-4-5-5-2-7v-9l14 2h10l17-4z" fill="#FAAF30"/>
<path transform="translate(991,641)" d="m0 0 1 2 5 2 5 6-16 32-10 19-11 16-7 9-3 5-11 10-5 3-5 1h-10l-3-3 4-8 8-7 7-7 9-11 9-12 2-1 1-4-14 6-7 2h-7l2-5 4-8 3-14 4-4 25-12 17-12z" fill="#FD6E07"/>
<path transform="translate(1050,465)" d="m0 0 4 4 8 14 10 17 8 15 2 8-2 3-4 14-10 24-8 14-7 9-8 8-2 1h-9l-6-5-1-7 6 1 1 1h5l4-6 3-12 1-51 3-46z" fill="#181819"/>
<path transform="translate(622,681)" d="m0 0 1 2 10 3 11 2h21l1 2 2 22v32l-1 6-9-1-16-4-16-6-11-8-1-5 4-15z" fill="#FAAF31"/>
<path transform="translate(277,893)" d="m0 0 5 1 8 9 12 16 6 7 4 11 3 4-3 9-6 12h-10l-10-9-2-7 2-6h-11l-18-6-12-5-10-6v-4l11-11 11-7 8-4 11-3z" fill="#FAB030"/>
<path transform="translate(560,738)" d="m0 0 4 1 10 8 12 12 9 12-3 5-21 14-16 13-6 6h-5l-2-3-3-1-1-2-4-2v-2l-6-2v-7l4-13 7-14 8-11 7-8z" fill="#FB981F"/>
<path transform="translate(319,931)" d="m0 0h5l15 10 19 10 25 9 9 3-2 1h-7l-12 6-14 8-16 6-4 1h-16l-12-4-6-3v6h-1l1-13 2-9 8-16 5-12z" fill="#008DC8"/>
<path transform="translate(959,725)" d="m0 0 5 1-1 7-7 10-3 9-6 11-4 6-10 6-9 3-15 1-22-16-3-3-6-24-1-9 1-1h14l6 7v2h2v2l4 2 6 4 7 1 2-4 6-4-2 4v4l2 1h10l7-3 11-9 3-3z" fill="#FAB02F"/>
<path transform="translate(246,760)" d="m0 0h5l13 11 8 8 8 10 8 13v2h2l-3 9-11 12-5 1-5-5-16-9-18-8-11-3-1-4 6-11 6-9 3-6h2l2-4 5-5z" fill="#FB971E"/>
<path transform="translate(304,1167)" d="m0 0h1v13l-2 6-14 5h-2v8l1 10-2 4-3 1h-12l-18-2-4 8-14-2-13-4-8-4-7-5-2-3 1-9 4-12 2-1 8 6 10 5 8 2h11l2-1 3-7 20 1 8-7 5-5 14-6z" fill="#00739D"/>
<path transform="translate(1078,943)" d="m0 0h13l15 1 1 1v49l-4 11-9 20-7 12-4 4-4-1v-10l6-31 1-4v-10l-5-13-2-3-5 2-9 10-6 4h-3l1-7 7-21 5-8 4-4z" fill="#DF9F83"/>
<path transform="translate(995,195)" d="m0 0h4l1 26 1 13 2-3 1 2-2 9-8 20-14 29-6 13-9-3v-25l2-55-2-1 10-3 4-3 2-4 2 2v4l6-1 2-19z" fill="#D8C8BE"/>
<path transform="translate(361,659)" d="m0 0 7 1 8 5 10 9 13 24 7 9 6 3h14l9-3 6-7 6-13h9l4 2-1 6-2 3-9 1v2h7l-1 5-7 5-3 7-18 4-6-1-8-4v3l-9-1h-2l14 12 20 15 10 7-1 2-5 1-10-2-10-4-11-8-12-12-14-20-3-9h-2l-12-25 1-3 8 17 4 6v2h2l-11-23-6-10z" fill="#886751"/>
<path transform="translate(279,582)" d="m0 0h8l6 5 4 6 1 4 4-1 2 5-3 9-7 16 1 4 10 11 2 3-1 4-9 7-13 12-3 2-4-1-8-9v-2h-3v-3l-4-2-6-8 1-5 8-8 16-14-4-7-6-7-2-7 1-6 4-5z" fill="#FC870F"/>
<path transform="translate(1071,720)" d="m0 0 4 5 7 11 3 4v3h2l5 12v2h2l4 8 4 11 4 8 4 11 3 10 1 4h-20l-11-4-6-5v-2l-4-2-4-9-2-8-1-11v-15l3-25z" fill="#FC6E09"/>
<path transform="translate(480,724)" d="m0 0 2 3v21l-3 16-3 8-4 1-12 12-9 6-4 1h-11l-11-2-12-7-8-15-3-9-2-11 1-2 4 1 8 5 9 5 5 3 11 4h11l13-5 7-8 4-10 2-3h2v-2h2z" fill="#FBB02F"/>
<path transform="translate(839,699)" d="m0 0 3 1 6 10 7 7 14 7 9 2 1 14-3-4-1 3h-2l-2 6-4 9h-2v-3l-6 1h-8l-12-3-16-7-10-6-4-4 1-5 25-25z" fill="#FC6E08"/>
<path transform="translate(482,742)" d="m0 0 10 3 24 9 23 8-1 4-7 16-3 14-2-3-12-3-25-10-11-6h-3l3-10z" fill="#B4977A"/>
<path transform="translate(1122,887)" d="m0 0h2l-1 21-1 1-1 10-4 13-2 7h-33v-2l-7-1-5-4-3-18v-4l19-2 8-2 16-8z" fill="#FC6F0A"/>
<path transform="translate(304,1150)" d="m0 0h3v11l-1 10-2-3-20 8-2 4-8 7-20-1-3 7-2 1h-11l-13-4-9-6-5-5 4-13h3l12 6 14 3 6-1 2-5 19-2 8-3 4-9z" fill="#B39679"/>
<path transform="translate(828,477)" d="m0 0h1l1 28 1 11v12l-2 12-2 1 1 8 2 4-1 5-2 1-1 6-4-4-3-1-9-11-6-13-2-8v-12l4-14 7-12 4-4h2l2-4 6-3z" fill="#DE9D80"/>
<path transform="translate(548,601)" d="m0 0 4 1v12l-2 5-7 10-1 4 9 11 12 13-1 4-11 9-12 11-1 2-4-1-10-10-9-11-1-4 12-16 9-8v-8l7-17 4-6z" fill="#FE880F"/>
<path transform="translate(860,762)" d="m0 0 4 4 12 32 13 29 10 20 13 23 8 13v1l-15 1-1-4-6-8-15-28-16-33-12-31-1-2v-8z" fill="#EE5479"/>
<path transform="translate(342,667)" d="m0 0 5 1 8 8 4 8 14 40 9 19-1 2-5-7-2-1v-2l-5-2-5-4-7-8-14-14-11-9-9-8-5-4v-2l-5 1 4-4 23-13z" fill="#0073AD"/>
<path transform="translate(469,818)" d="m0 0 5 5 10 8 18 13 8 6-1 14-1 10-2 4-4-1-14-10-16-13-12-11-5-6v-4h-2v-2l5-1 6-5z" fill="#0073AD"/>
<path transform="translate(399,717)" d="m0 0 13 3v-3l10 4 8-1 15-3 9 7 10 6 3 1-1 8-6 9-8 6-8 1-1-3-11-7-14-11-11-9-8-7z" fill="#B59679"/>
<path transform="translate(989,431)" d="m0 0 9 1 9 6 7 8 3 8v16l-1 2-8 1-9-3-13-10-14-12-2-2 1-6 9-6z" fill="#171819"/>
<path transform="translate(442,1369)" d="m0 0 5 2 20 14 10 14 6 7 12 6 4 1h35l6-1 1 6-4 5-8 3-6 1h-17l-16-4-12-6-7-8-6-10-6-7-13-8-3-3-1-3z" fill="#876752"/>
<path transform="translate(277,893)" d="m0 0 5 1 8 9v2l-6 5-10-2-10 5-5 3 2 5 10 5 5-1h8l8-1-2 5-7 5 1 6h-9l-18-6-12-5-10-6v-4l11-11 11-7 8-4 11-3z" fill="#F99722"/>
<path transform="translate(991,641)" d="m0 0 1 2 2 1-6 5-1 11-3 9-4 5-4 3h-2l-2 4-9 12-8 3-15 5h-7l2-5 4-8 3-14 4-4 25-12 17-12z" fill="#F89723"/>
<path transform="translate(244,762)" d="m0 0 3 1v3l6 4 4 4v2l4 2 4 5v2l3 1 2 9-4-2-11-11-7-5 7 7 8 7 8 8 1 6-2 4-4 1-1 2-10-6-18-8-8-2h-4l-1 3-4 1 1-5 5-9 6-9 3-6h2l2-4z" fill="#FAAF30"/>
<path transform="translate(296,962)" d="m0 0h9l-3 27-1 5-2 24-2 18-3 29-6 54-7 44-2 2h-4l3-23 5-35 4-35 1-6 2-31 5-58z" fill="#006187"/>
<path transform="translate(1111,552)" d="m0 0h1l1 15-2 14-6 12-6 7h-2l-2 4-16 9-11 4-2 2v13l-4 5v1l2 9-5 7-5 3h-2l1 7-4 1-5-4-3-7 1-7 6-8 6-3h2l-3-5 1-7 3-4-2-4-1-3 4-6 4-3 4 1h14l7-7 4-2h3l2-5 4-2 1-2h2l1-4 2-5 2-6 2-1z" fill="#DB9C80"/>
<path transform="translate(623,691)" d="m0 0 16 4 16 1h10l2 5 1 11v32h-8l-12-4-11-3-10-5-2-3 3-1 18 5 1-11 2-6 1-7-2-1v-4l-12-2-10-6v-2h-3z" fill="#FB9820"/>
<path transform="translate(564,740)" d="m0 0 4 2 10 9 3 4h-2l6 11 1 4-5 4-10 5-18 13-4 1-3-2-1-4 6-11 12-17 5-6 2-4-5 3-11 12-10 14-5 8-3 1-1-2 4-9 12-18 7-9 6-7z" fill="#FAB030"/>
<path transform="translate(211,1180)" d="m0 0 5 3 9 6 13 4 11 1v10l-1 4h2v3h2l-3 9-14-2-13-4-8-4-7-5-2-3 1-9 4-12z" fill="#00729B"/>
<path transform="translate(848,913)" d="m0 0 5 2 20 7 14 3 19 2h28l34-5 18-5 3 1v5l-21 7-29 6-11 1h-13l-20-2-23-5-22-9-2-3z" fill="#C4201F"/>
<path transform="translate(404,472)" d="m0 0h12l15 4 15 6 6 4-2 6-6 9-9-3-19-7-17-4-8-1h-14l2-4 8-5 12-4z" fill="#171819"/>
<path transform="translate(957,324)" d="m0 0h9l6 8v19l-4 11-6 6-5 2-6-1-4-4-4-10v-11l4-10 7-8z" fill="#C91A1B"/>
<path transform="translate(919,1429)" d="m0 0 6 2-1 3-10 3-10 9-8 8-5 3-5 1h-13l-26-6-12-5-2-2v-3l2-1h10l12 1 11 3h9l11-4 14-8 7-2z" fill="#FB9820"/>
<path transform="translate(884,1132)" d="m0 0h1v19l8 2 11 3 16 1h28l1-6h1v15l-8 4-16 4h-17l-17-5-6-4-2-3z" fill="#ED577A"/>
<path transform="translate(885,1140)" d="m0 0 20 1h26l7-1h9l1 2 1 15-1 1h-28l-16-1-17-5-2-1z" fill="#FE6D05"/>
<path transform="translate(395,601)" d="m0 0 9 3 5 1-2 1 8 11 8 6h13l15-4 2-1 24-1 14-1-5 6-13 4-15 4-19 6-5 1h-11l-8-4-6-8-4-15v-4l-6-1z" fill="#1B1B1C"/>
<path transform="translate(409,605)" d="m0 0 19 2 27 2 32 1h20v1l-12 3-3 1-1 2-38 2-9 3-8 2h-13l-8-6-8-10v-2z" fill="#B68564"/>
<path transform="translate(960,301)" d="m0 0 9 1 7 4 6 7 4 10 1 3v7h-1l-1-5h-3l-4-7-7-7-9-1-8 2-11 7h-2l-2 5-3 5 1 15-1 5v12l5 10 3 4v2h2v2l7 2 9 3 1 2-4 2h-8l-10-4-5-6-3-6-3-14v-14l2-12 9-19h2l2-5 12-9z" fill="#FC971D"/>
<path transform="translate(987,903)" d="m0 0h1v14l-16 5-30 5-8 1h-28l-24-3-15-4-16-6-3-2v-7l15 6 24 6 19 3h28l30-4 22-7z" fill="#FE800A"/>
<path transform="translate(959,693)" d="m0 0h2l-1 5h-2l-2 4-10 13-14 15-11 10-4 3h-2l-3-21 10-5 6-15 15-3 14-5z" fill="#7BF4F1"/>
<path transform="translate(279,582)" d="m0 0h8l6 5 4 6 1 4 4-1 2 5-3 9-7 16-5-1-4-6 1-5 1-3h-7l-2 1-7-9-2-7 1-6 4-5z" fill="#FA790C"/>
<path transform="translate(475,774)" d="m0 0 4 5 10 5 13 8 11 5 8 4v9l-2 6-10-3-25-12-10-6-5-5-1-6z" fill="#0073AD"/>
<path transform="translate(870,444)" d="m0 0h15l8 4 8 8 2 4v10l-5 11-12-6-13-12-7-9v-7z" fill="#171819"/>
<path transform="translate(1019,1431)" d="m0 0 9 2 8 6 3 1v2l6 2 8 3h7l8-2 7 1 3 1 15 1v2l-9 4-15 3-12 2h-11l-9-2-8-5-4-4-3-6-1-3-4-2-4-4z" fill="#FB9821"/>
<path transform="translate(1e3 653)" d="m0 0 6 2 5 5-7 23-6 12-1 4h-2l-3 9-1 2h-2l-1 5h-2l-1 4-5 8h-2l-1 4h-2l-1-4 3-11v-4h2l1-5 6-16 5-12 6-17z" fill="#FB6F0A"/>
<path transform="translate(837,709)" d="m0 0 4 1 4 6 3 8v9l-4 6-4 3-9-2-15-8-5 2-2-2 1-5 16-16 9-1z" fill="#FD7B0C"/>
<path transform="translate(961,707)" d="m0 0h4v2l4 2-4 7-7 9-3 5-11 10-5 3-5 1h-10l-3-3 4-8 8-7 7-7 9-11 10-2z" fill="#FD7C0E"/>
<path transform="translate(278,822)" d="m0 0 4 4v15l-1 13-1 31-6 3-8-10-1-3 4-43 7-8z" fill="#00729A"/>
<path transform="translate(506,951)" d="m0 0h2l5 34v8l-8-4-11-9-13-12-4-4 1-3 26-9z" fill="#0083BD"/>
<path transform="translate(378,699)" d="m0 0 4 2 15 15 11 9 16 13 17 12 4 4-6 2-10-2-10-4-11-8-12-12-14-20-4-9z" fill="#0082BC"/>
<path transform="translate(958,317)" d="m0 0h8l6 4 4 7 2 9v11l-2 7-3 8-2 4h-2l-2 4-6 5-2 1h-6l-6-4-2-4h-2l-4-11v-14l3-9 4-8 6-7zm-1 7-8 7-5 9-1 4v11l5 11 5 4 6-1 5-3 5-6 3-9v-19l-3-5-3-3z" fill="#DACDC5"/>
<path transform="translate(307,926)" d="m0 0 6 12 2 5-8 18-1 1h-10l-10-9-2-7 3-8 9-8z" fill="#DD9C7F"/>
<path transform="translate(516,477)" d="m0 0h11l10 4 9 6 1 4-4 1h-12l-15 4-13 6-4-1-3-6-1-6 2-4 14-7z" fill="#171819"/>
<path transform="translate(418,524)" d="m0 0h7l5 5 3 5 1 4v14l-3 6-6 5-6-1-6-7-3-8v-8l3-10z" fill="#18191A"/>
<path transform="translate(839,1121)" d="m0 0 10 3 11 2h16 3v9l-1 7-2 2h-20l-11-3-7-4v-12z" fill="#FB6D07"/>
<path transform="translate(378,1368)" d="m0 0h1v6l-6 8h-2v39l-4 9-7 6-16 4h-18l-8-3-6-5-1-7 20 8 15 1 11-3 5-4 3-8v-31l1-11 8-6z" fill="#191A1B"/>
<path transform="translate(919,852)" d="m0 0h5l11 21 6 9v2l-10 1h-9l-5-5-13-22 2-4 8-1z" fill="#FE6D05"/>
<path transform="translate(833,671)" d="m0 0h3l1 5 1 24h-2l-2 4-24 24-2 3-4-3 5-6 1-2h2l7-21 1-10 8-12z" fill="#78F2F0"/>
<path transform="translate(1079,909)" d="m0 0h6v1h-5v2l9 1 6 4 1 1v9l-4 6-3 1v2l-2 1 5 1v1h-10v-2l-7-1-5-4-3-18v-4z" fill="#FC7E11"/>
<path transform="translate(395,842)" d="m0 0 7 4v6l5 1 9 15 9 14 10 15 10 14 10 13v2h2l3 5v2l-8 1-12-17-12-18-12-19-21-36z" fill="#0083BD"/>
<path transform="translate(828,484)" d="m0 0h1l2 32v12l-2 12-2 1v7l-6-5-3-1v-4h-2l-3-7v-11l4-9 1-6 5-5 4-2z" fill="#B58463"/>
<path transform="translate(305,1068)" d="m0 0 3 4 2 14v40l-2 21-1 3-3 1h-8l2-6 2-3v-19l2-25 2-27z" fill="#006289"/>
<path transform="translate(259,935)" d="m0 0 7 1 13 4v2h-2l-1 8-3-1-3-3-2-5h-1l-2 7h-2l-3 9-2 21v8l-2 5-3 8-2 12 1 4-1 9-2 1-2 7v6l-1 3v12l-2 7-2-1-2 5-1-3 8-49 7-46 4-29z" fill="#0075AF"/>
<path transform="translate(466,561)" d="m0 0h7l16 4v2l4 2-2 6-5 5-7 4h-7l-12-4-3-5 1-7 5-6z" fill="#E9CCB4"/>
<path transform="translate(878,726)" d="m0 0h14l6 7v2h2v2l4 2 6 4 7 1 2-4 6-4-2 4v4l2 1h13l-3 3-11 5-10 2-7-1-10-7-5-6-6-11v-3h-6l3 9 1 12v8l-2-4-5-22z" fill="#FB971F"/>
<path transform="translate(442,1372)" d="m0 0 5 5 7 4 8 4 4 1 8 17 3 4v2h2v2h2v2l4 2 11 5 9 2h16l13-3 6-3-1 5-6 4-10 2h-17l-16-4-12-6-7-8-6-10-6-7-13-8-3-3z" fill="#1A1B1C"/>
<path transform="translate(451,797)" d="m0 0h8l3 2v2l5 1 2 4v11l-1 3-5 1-2 4-5 3-3-1v-2h-3l-5-10-2-5v-6l3-3 5-2z" fill="#FF7B0A"/>
<path transform="translate(1057,620)" d="m0 0 7 1 2 3v8l-4 5v1l2 9-5 7-5 3h-2l1 7-4 1-5-4-3-7 1-7 6-8 6-3h2l-3-5 1-7z" fill="#E35476"/>
<path transform="translate(896,575)" d="m0 0h8l34 12v2l-8 3-7 1h-14l-8-2-8-4-9-9v-2z" fill="#F8F8F7"/>
<path transform="translate(599,270)" d="m0 0h7l5 5 2 3v10l-3 5-5 4h-4l-4-7-4-2-9-1v-7l3-7 7-2z" fill="#F9F8F7"/>
<path transform="translate(476,773)" d="m0 0 5 2 17 8 22 8 7 2-1 12-8 38-4-4 1-10 3-11h2v-17l-11-5-16-8-7-5-8-4-2-3z" fill="#0083BD"/>
<path transform="translate(878,484)" d="m0 0 5 1 4 6 1 9-5 14-5 4h-6l-3-5-1-2v-13l3-8z" fill="#171B1D"/>
<path transform="translate(512,523)" d="m0 0 5 1 4 4 3 9-1 10-4 8-5 4-6-1-4-5-2-6v-11l2-2 1 4h4v2l5 1-4-10-3-3z" fill="#171A1C"/>
<path transform="translate(819,690)" d="m0 0h1v9l-5 15-3 6h-2l-2 5-8 8-3 2h-3v2l-4 2h-3l-1-6 9-10 8-12 12-16z" fill="#FD7A0B"/>
<path transform="translate(944,412)" d="m0 0h2l2 15v17l-4 6-2 2-7-1-4-3-1-9 5-14 6-10z" fill="#C91A1A"/>
<path transform="translate(287,824)" d="m0 0h4l1 8 1 45 4 17 1 9-3 3-5-5-3-7-1-3v-8l1-7-1-34v-10z" fill="#00729A"/>
<path transform="translate(975,501)" d="m0 0 6 1 2 3-6 5-4 6-1 3 7-3 5-4 2-4 1 4-3 14-5 8-4 3h-5l-4-5-1-3v-14l5-10z" fill="#191A1B"/>
<path transform="translate(277,893)" d="m0 0 5 1 4 4-1 2-8 1-4 3-6 3-18 11-8 6h-5l-2-4 12-12 11-7 8-4 11-3z" fill="#FAAD2E"/>
<path transform="translate(386,674)" d="m0 0 7 6 15 13 14 11 8 4v2l-4 1h-14l-7-4-7-9-12-22z" fill="#B49678"/>
<path transform="translate(268,832)" d="m0 0h1v9l-3 34h-2l-11-14-4-4 2-4 7-8 8-11z" fill="#F9FAFA"/>
<path transform="translate(951,679)" d="m0 0 7 1 5 5-2 1 6-1-1 4-5 5-21 7h-7l2-5 4-8 1-3z" fill="#F9AE31"/>
<path transform="translate(987,903)" d="m0 0h1v14l-16 5-30 5-8 1h-28v-1l25-1 3-1-1-1-23-1v-1l24-1 30-4 22-7z" fill="#FE7206"/>
<path transform="translate(364,1390)" d="m0 0h1l1 18v11l-3 8-6 5-11 3-15-1-15-6-3-3 11 2h15l12-2 6-3 4-8 2-12z" fill="#876752"/>
<path transform="translate(211,1180)" d="m0 0 5 3-6 7v2l5 5 4 8 9 6 6-1 1-3 3 4 6 3 6 1 1-2-1 5-1 2-14-2-13-4-8-4-7-5-2-3 1-9 4-12z" fill="#0075B0"/>
<path transform="translate(950,724)" d="m0 0 5 2 2 1-1 4-12 11-5 3-5 1h-10l-3-3 4-8 7-5 3 2 12-5z" fill="#FE8810"/>
<path transform="translate(957,324)" d="m0 0h9l6 8v19l-4 11-6 6-5 2-6-1-4-4-4-10v-11l4-10 7-8zm3 4-6 3-5 7-2 9 1 10 4 6 3 2 7-1 6-7 2-5v-14l-4-8-3-2z" fill="#F99927"/>
<path transform="translate(908,784)" d="m0 0 4 3v2h2l2 7h2l-2 9-8 9-5-5-4-13v-9z" fill="#FF7C0A"/>
<path transform="translate(824,589)" d="m0 0 7 1 7 5 2 5v6l-9 5h-7l-3-3-3-5-1-4 2-4-3 2 2-4z" fill="#776657"/>
<path transform="translate(944,225)" d="m0 0 4 1-16 7-11 8-10 8-8 8-7 10-4 6-4 9h-2v2l-3 3-12 2-11 1-16 8-7 7-6 10-4 8-1-4 4-7 2-5 11-12 9-6 14-5 15-1 5-5 10-16 10-11 4-5 14-11 15-8z" fill="#E0AB91"/>
<path transform="translate(506,951)" d="m0 0h2l2 13v14l-4-2-5-6-8-1-4-3-1-4v-2l-7 1 3-2 20-7z" fill="#0073AC"/>
<path transform="translate(897,534)" d="m0 0 2 4v4l4 2 6 4 8 2h8l8-3 3-2 4 1v3l-9 7-7 3h-9l-12-6-6-7v-3h-11v-1h10v-7z" fill="#B28263"/>
<path transform="translate(475,442)" d="m0 0h9l4 5v11l-3 5-2 1h-7l-6-7v-8l2-5z" fill="#C71F1E"/>
<path transform="translate(278,822)" d="m0 0 4 4v6l-2 2h-3-2l-2 5-1 4-1 6v8l-2 4-1 7 2 1 2 6 1 2h-2v2l9-2v8l-6 3-8-10-1-3 4-43 7-8z" fill="#0076B1"/>
<path transform="translate(560,738)" d="m0 0 4 1 1 3-9 10-14 21-4 7-4 6-2-2 1-6 6-12 3-5 2-5 4-6 5-5z" fill="#FE8910"/>
<path transform="translate(503,1390)" d="m0 0 7 1 6 7v5l-6 6h-8l-6-4-1-7 4-6z" fill="#876752"/>
<path transform="translate(1e3 653)" d="m0 0 4 1-1 3h-2l-13 39-1 17-2 6-5 8h-2l-1 4h-2l-1-4 3-11v-4h2l1-5 6-16 5-12 6-17z" fill="#FE7B0C"/>
<path transform="translate(244,762)" d="m0 0 3 1v3l6 4 4 4v2l4 2 4 5v2l3 1 2 9-4-2-11-11-6-5-7-3-3-2-5 4 1-5h2l2-4z" fill="#FAAC2F"/>
<path transform="translate(410,609)" d="m0 0 17 5 13 2 12 1-1 3-15 4h-13l-8-6-4-5z" fill="#F8F6F5"/>
<path transform="translate(910,723)" d="m0 0 3 1 2 11v8l2 1h-7l-10-7v-2h-2l-5-7v-2z" fill="#EC5879"/>
<path transform="translate(993,644)" d="m0 0 5 2 4 6-4 5-1-1-7 9-6 9h-2l-2 4-6 7-6 2 2-4 4-6 8-6 3-6 2-14 2-4z" fill="#FD850E"/>
<path transform="translate(548,601)" d="m0 0 4 1v12l-2 5-7 10-2 2-2-1v2l-3 1-1-8 7-17 4-6z" fill="#FD8912"/>
<path transform="translate(233,1193)" d="m0 0 16 1v10l-1 4h2v3h2v2h-2v2h-6l-7-4-3-6z" fill="#006288"/>
<path transform="translate(962,312)" d="m0 0 9 1 2 3h-5l-1 1-9 1-8 5-6 9-4 12-1 14h-1l-2-17-1-9 6-10 15-9z" fill="#FE860D"/>
<path transform="translate(299,596)" d="m0 0 4 1 1 4-3 9-7 16-5-1-4-6 1-5z" fill="#191C1D"/>
<path transform="translate(321,871)" d="m0 0 3 3 8 22 1 7-9 6-3 1z" fill="#F8F8F8"/>
<path transform="translate(424,796)" d="m0 0 7 1 11 2v17l3 6v2h-2v-3h-2v-2l-3-1v-2l-5-2-8-8z" fill="#0074AC"/>
<path transform="translate(563,744)" d="m0 0 4 1 1 4-14 15-10 14-5 8-3 1-1-2 4-9 12-18 7-9z" fill="#FBB02F"/>
<path transform="translate(819,594)" d="m0 0 1 3-2 2 2 5 4 6h7l8-4-1 6-4 5-4 2h-7l-7-3-3-4v-12l3-4z" fill="#056184"/>
<path transform="translate(958,317)" d="m0 0h8l5 5-2 3h-12l-7 6-5 9-2 16-2 2-1-2v-11l1-9 5-9 6-7z" fill="#D9C7BE"/>
<path transform="translate(988,641)" d="m0 0h3l-1 4-10 8-11 7-25 12-1-3 3-5 24-11 13-8z" fill="#7DF3F1"/>
<path transform="translate(451,797)" d="m0 0h8l3 2v2l5 1 2 4v11l-1 3-5 1-2 4-5 3-3-1v-2h-3l-5-10-2-5v-6l3-3 5-2zm3 2-8 6 1 10 4 6 4 2 4-1 4-4 2-10-1-3h-2l-1-3-4-3z" fill="#FB8814"/>
<path transform="translate(311,1104)" d="m0 0 4 1 1 7v29l-1 20-2-2v-18l-1-1-4 5v-9z" fill="#CDD9D9"/>
<path transform="translate(1060,637)" d="m0 0 2 1 2 9-5 7-5 3h-2l1 7-4 1-5-4-3-7 1-7 2-2v4h3l1-2 8 1 2-1h2l-2-5-1-3h3z" fill="#7C6656"/>
<path transform="translate(337,1396)" d="m0 0h7l5 5v6l-5 5h-8l-5-4-1-5 5-6z" fill="#181819"/>
<path transform="translate(405,724)" d="m0 0 4 2 15 12 17 12 4 4-6 2-7-1-3-4-4-6-10-9-7-5-3-5z" fill="#0076B0"/>
<path transform="translate(279,582)" d="m0 0h8l3 3-2 1v7l-5 5-3 2-5-1-3-8v-4z" fill="#FE870D"/>
<path transform="translate(1062,639)" d="m0 0 4 4 2 5-1 9-4 6-4 3h-8l1-3-1-4 4-4 5-3 3-5z" fill="#025C7F"/>
<path transform="translate(308,325)" d="m0 0 1 4-4 5-8 7-9 9-11 18-5 11-4 10-2 2 2-10 7-16 8-13 10-13 12-12z" fill="#3A6571"/>
<path transform="translate(838,1125)" d="m0 0h1l1 10 11 2h9l7 2 9 1 2-2-1 5-1 1h-20l-11-3-7-4z" fill="#E75C79"/>
<path transform="translate(968,315)" d="m0 0 7 2 6 11v22l-5 11-2 5h-3l2-5 3-7 1-6v-11l-3-11-4-6-4-3z" fill="#FE790A"/>
<path transform="translate(283,899)" d="m0 0 5 2 2 4-6 5-10-2-10 5-7 3-2-1 5-5 10-6 6-3z" fill="#FA981F"/>
<path transform="translate(896,1142)" d="m0 0 3 1 1 3 5-2 5 1 2 2-1 1 4 2 2-1v6l-1 1h-7l-7-2-8-5v-2l-4-2-1-2z" fill="#FE7A09"/>
<path transform="translate(82,713)" d="m0 0 1 3h4l2 4-1 13v13l1 4-5-1-2-3z" fill="#1D6681"/>
<path transform="translate(815,707)" d="m0 0h1l-1 7-3 6h-2l-2 5-8 8-3 2h-3v2l-4 2h-3l-1-6 6-5-2 6 8-6h2v-2l6-5 3-8z" fill="#F47617"/>
<path transform="translate(1062,604)" d="m0 0 4 1 3 4v7l-3 3-2 4v-2l-6-1-4-7 4-6z" fill="#F09425"/>
<path transform="translate(889 1e3)" d="m0 0h1v14l-2 55h-1l-1-9-2 2 1-26 3-34z" fill="#D6D6D6"/>
<path transform="translate(848,906)" d="m0 0 15 6 11 3 5 4-2 2-9-2-2-1v2l-10-3-8-4z" fill="#FE820C"/>
<path transform="translate(431,797)" d="m0 0h11l1 1 1 12 6 13v2h3v2l6-1 3-3v-3h5l-2 5-7 6-3 1-8-5-6-11v-12l1-5-11-1z" fill="#E7943B"/>
<path transform="translate(298,648)" d="m0 0h6l-5 5-15 14-3 2-4-1-5-6v-2l4-1 8 1 3-1v-2z" fill="#FD7F11"/>
<path transform="translate(968,319)" d="m0 0 4 2 4 7 2 9v11l-1 6-4-4-1 5-1-4v-19l-2-5-3-1 4-4z" fill="#DACBC3"/>
<path transform="translate(619,129)" d="m0 0h2l1 8 1-1h6l2 2v9l-3 3-9-1z" fill="#253033"/>
<path transform="translate(596,181)" d="m0 0h9l2 2v9l-2 3-7-1v5h-3v-16z" fill="#253338"/>
<path transform="translate(579,181)" d="m0 0h10l2 3v8l-3 3-6-1-1 5h-2z" fill="#383F3F"/>
<path transform="translate(845,1126)" d="m0 0 14 1 7 1 1 7h-16l-6-4-1-4z" fill="#FF7B0A"/>
<path transform="translate(1057,620)" d="m0 0 7 1 2 3v8l-2 3h-7l-4-4 1-7z" fill="#F4F1EF"/>
<path transform="translate(909,785)" d="m0 0 3 2v2h2l2 7h2l-2 9-8 9-5-5 1-2 6-6v-11z" fill="#FE860E"/>
<path transform="translate(829,572)" d="m0 0 4 1 2 1 1 6 1 5-4 4-6-1-3-3v-6z" fill="#F4F2F0"/>
<path transform="translate(644,180)" d="m0 0h5l4 4v6l-5 5h-5l-3-3v-9z" fill="#27363A"/>
<path transform="translate(987,903)" d="m0 0h1v14l-16 5-4 1h-15v-2l6-2 16-2 4-2-1-2 8-3z" fill="#FC9A1F"/>
<path transform="translate(477,547)" d="m0 0h2l2 13 9 3 7 5-1 9-6 7-7 4-5 1h-7l-9-3 3-1 4 1h11l8-5 5-7 1-4-1-2-4-1v-2l-6-1-3-3-2-5z" fill="#8E6B54"/>
<path transform="translate(676,181)" d="m0 0h10l-1 7-3 2h-6v2h9v3h-9v2h9v2h-10l-1-1v-14z" fill="#606A6C"/>
<path transform="translate(565,176)" d="m0 0 4 1 4 8 3 10-4-2v-3l-9 1-1 3h-3l3-11z" fill="#30393B"/>
<path transform="translate(1079,938)" d="m0 0 34 1-3 4h-3l-1 2-24-2-3-1z" fill="#77F6F3"/>
<path transform="translate(893,952)" d="m0 0h1v22l-2 31-1 9h-1l-1-7-1-4 3-33 1-16z" fill="#DF9C7F"/>
<path transform="translate(897,922)" d="m0 0 36 1 3 2-5 2h-26v-2h-11l-1-2z" fill="#FF870D"/>
<path transform="translate(280,1190)" d="m0 0 4 1-4 4 1 10 1 4h5l-1 4-3 1h-12l3-1 1-11 1-8h2z" fill="#0175AF"/>
<path transform="translate(819,690)" d="m0 0h1v9l-2 4v-2l-8 7-8 10-4 4-2-1 10-14 9-12z" fill="#FC8A13"/>
<path transform="translate(487,613)" d="m0 0h5l-2 3-13 2-25 1v-2h-12v-1h14l2-1z" fill="#D29E83"/>
<path transform="translate(829,556)" d="m0 0 3 1 5 6 2 6-2 4h-5l-6-7v-7l3-1z" fill="#F19225"/>
<path transform="translate(501,1394)" d="m0 0 6 1 4 5-2 5-1 1h-8l-4-3 1-5z" fill="#181819"/>
<path transform="translate(885,760)" d="m0 0 4 4 4 6v2h2l5 7-1 4-6 1-4-9-4-11z" fill="#EF5579"/>
<path transform="translate(267,868)" d="m0 0 3 1 2 6 1 2h-2v2l9-2v8l-6 3-8-10-1-3z" fill="#0073AD"/>
<path transform="translate(714,136)" d="m0 0h9l1 3v10l-9 1-2-2v-5l2-2 6-1-7-2z" fill="#172125"/>
<path transform="translate(976,913)" d="m0 0 5 1-3 3-7 2-18 2v2h8v1l-7 1h-12l3-4 6-2 16-3z" fill="#FE7307"/>
<path transform="translate(838,606)" d="m0 0 1 3-4 7-5 3h-7v-2h-2l2-4h2v-2l8-2z" fill="#006187"/>
<path transform="translate(970,338)" d="m0 0h1v17l-4 8-5 5-4 1-8-4-3-4v-9h1l3 9 4 3 7-1 5-6 2-5z" fill="#FD7C0E"/>
<path transform="translate(691,181)" d="m0 0h8l2 3-1 4h-9l1 3 9 1-1 3h-8l-3-3v-8z" fill="#667275"/>
<path transform="translate(281,1192)" d="m0 0 4 1 3 12v4l-4 1-3-3-2-7 1-7z" fill="#00648B"/>
<path transform="translate(639,136)" d="m0 0h6l2 2v5h-10l1 3 8 1 1 3h-9l-3-3v-7z" fill="#4B4A47"/>
<path transform="translate(827,595)" d="m0 0 9 3 1 7-2 2h-9l-2-2h2l-1-6z" fill="#E85A79"/>
<path transform="translate(1060,637)" d="m0 0 2 1 2 9-5 7h-8l-3-3-1-3 3-1 6 1 2-1h2l-2-5-1-3h3z" fill="#AC8E72"/>
<path transform="translate(947,334)" d="m0 0 1 3-1 5 1 19 5 5 5 2-1 2-6-1-4-4-4-10v-11z" fill="#F29D40"/>
<path transform="translate(300,994)" d="m0 0h1l1 42-4 1-1-1v-13l2-15z" fill="#0074A6"/>
<path transform="translate(520,813)" d="m0 0 3 4-5 26-4-4 1-10 3-11h2z" fill="#008ECA"/>
<path transform="translate(415,531)" d="m0 0 5 1 2 2 1 13-4-1-6-7v-7z" fill="#CAC6C1"/>
<path transform="translate(960,318)" d="m0 0 8 1 3 4-2 2h-12l-5 2-2-3 5-4z" fill="#FAF8F7"/>
<path transform="translate(599,136)" d="m0 0h6l3 3v4h-10l2 4 7 1v2h-9l-2-3v-8z" fill="#404241"/>
<path transform="translate(225,1128)" d="m0 0h2v6l1 5-3 7-1 3h-2l-1 6v3l-2 1-1 7-2-2z" fill="#0079B3"/>
<path transform="translate(537,1409)" d="m0 0 2 1v2l-5 2h-35l-9-3 3-1 7 2h11l6-1 18-1z" fill="#B98765"/>
<path transform="translate(238,1066)" d="m0 0h1v11l-3 11-1 11-1 2v9l-3 3v4h-2l-1 7h-1l1-9 9-43z" fill="#007AB5"/>
<path transform="translate(246,1030)" d="m0 0 1 2v6l-1 3v12l-2 7-2-1-2 5-1-3 5-29z" fill="#0077B1"/>
<path transform="translate(562,131)" d="m0 0h16v2h-6v11l-1 6h-3v-16h-5z" fill="#4F534F"/>
<path transform="translate(1102,990)" d="m0 0h4v8l-6 12-2-1v-8l2-7z" fill="#BD8A68"/>
<path transform="translate(727,176)" d="m0 0h12l-1 4-7 11 9 1-1 3h-12l1-5 8-12h-9z" fill="#47443F"/>
<path transform="translate(944,225)" d="m0 0 4 1-16 7-11 8-10 8-7 7-2-1 8-9 14-11 15-8z" fill="#DFAB92"/>
<path transform="translate(984,707)" d="m0 0h1v10l2 6-3 4h-2l-1 4h-2l-1-4 3-11v-4h2z" fill="#FC8712"/>
<path transform="translate(362,663)" d="m0 0 4 5 14 27v3h-2l-8-14-8-18z" fill="#D6D5D4"/>
<path transform="translate(1e3 653)" d="m0 0 4 1-1 3h-2l-12 36-3 5-3 6-1-3 8-19 7-20z" fill="#FF820B"/>
<path transform="translate(284,351)" d="m0 0 1 4-8 13-5 11-4 10-2 2 2-10 7-16 8-13z" fill="#306C7F"/>
<path transform="translate(311,1104)" d="m0 0 4 1 1 7v29l-1 20-2-2 1-42-1-10-2 2z" fill="#77F6F3"/>
<path transform="translate(878,726)" d="m0 0h8v1h-6l3 9 1 12v8l-2-4-5-22z" fill="#F7982F"/>
<path transform="translate(880,489)" d="m0 0 4 1 1 7-5 3-7 1 1-4z" fill="#D9D3CD"/>
<path transform="translate(567,749)" d="m0 0h3l-2 6-7 8-5 5-2-1 2-4 3-5z" fill="#FE8C12"/>
<path transform="translate(685,131)" d="m0 0 7 1 2 3h-9l-2 3 1 9h7l4-2-1 3-3 2h-7l-4-5v-8z" fill="#272F32"/>
<path transform="translate(850,290)" d="m0 0 2 1-5 5-8 7-7 10-5 10-1-4 4-7 2-5 11-12z" fill="#DFB09A"/>
<path transform="translate(381,705)" d="m0 0 4 2 1 2 5 3 2 4 2 10h-2l-11-16z" fill="#0074AC"/>
<path transform="translate(564,740)" d="m0 0 4 2 10 9 1 2-4 1h-7l2-5h-2l-2-4-3-2z" fill="#F69B36"/>
<path transform="translate(858,912)" d="m0 0 9 1 8 3 4 3-2 2-9-2-7-3v-2l-3-1z" fill="#FC931B"/>
<path transform="translate(304,1167)" d="m0 0h1v13l-2 6-3-3-1-13z" fill="#02668E"/>
<path transform="translate(878,632)" d="m0 0 9 5 12 3-1 2h-14l-5-4z" fill="#181A1C"/>
<path transform="translate(310,1421)" d="m0 0 7 3 7 1h27l-4 2-8 1h-15l-13-3-1 4z" fill="#B58464"/>
<path transform="translate(981,507)" d="m0 0 4 2-1 4-8 6h-4l1-5z" fill="#F3F2F0"/>
<path transform="translate(984,670)" d="m0 0 1 2-1 2h-2l-2 4-6 7-6 2 2-4 4-6z" fill="#FF840C"/>
<path transform="translate(419,731)" d="m0 0 5 1v2l5 2 1 3 4 2-1 3-5-2-10-8z" fill="#D99C7F"/>
<path transform="translate(487,610)" d="m0 0h20v1l-12 3-3 1-1 2v-3l-11-1 1-2z" fill="#82634E"/>
<path transform="translate(729,131)" d="m0 0h2v5h5v2h-4v10h4v2h-6l-1-2v-10h-2v-2h2z" fill="#253134"/>
<path transform="translate(274,904)" d="m0 0 2 2h-2v2l-10 5-7 3-2-1 5-5 9-4z" fill="#FD8D13"/>
<path transform="translate(412,645)" d="m0 0 12 1h12l13-1-3 2-9 2h-15l-10-3z" fill="#876752"/>
<path transform="translate(247,776)" d="m0 0 4 2 12 11 18 18h-3l-21-21-8-7z" fill="#FE7407"/>
<path transform="translate(627,176)" d="m0 0h10v2h-8v5h7v2h-7v10h-2z" fill="#1D1B1B"/>
<path transform="translate(272,530)" d="m0 0 5 2 8 7 7 10 4 8-1 3-6-11-8-10v-2l-4-2z" fill="#876752"/>
<path transform="translate(924,1411)" d="m0 0h5l-2 7h-8l-4-5z" fill="#FB981E"/>
<path transform="translate(580,294)" d="m0 0h3l5 5 8 4-2 5h-3l-1-5-3-2-8-1z" fill="#DCD4CC"/>
<path transform="translate(643,183)" d="m0 0h6l1 1v7l-1 1h-5l-2-2v-6z" fill="#F7F5F4"/>
<path transform="translate(622,138)" d="m0 0h6l1 2v6l-1 1h-6l-1-1v-6z" fill="#EAE5E0"/>
<path transform="translate(598,183)" d="m0 0h6l1 1v7l-1 1h-5l-2-2z" fill="#EEEAE6"/>
<path transform="translate(708,181)" d="m0 0h7l1 1v12h-2v-11l-6 2-1 9h-2v-12z" fill="#13323E"/>
<path transform="translate(399,717)" d="m0 0 9 3 5 5 3 4 1 3-4-2-13-11z" fill="#D89B7E"/>
<path transform="translate(897,534)" d="m0 0 2 4v4l4 2 2 3h-3l-2 3-3-4v-3h-11v-1h10v-7z" fill="#81634F"/>
<path transform="translate(665,712)" d="m0 0 2 3v19l-2-2-3-12z" fill="#FF870D"/>
<path transform="translate(507,530)" d="m0 0 4 1 3 6v4l-5-1v-2l-4-1 1-6z" fill="#CCC8C4"/>
<path transform="translate(973,350)" d="m0 0 3 1-1 8-4 6-3-2 1-5 1-3h2z" fill="#F5EEEA"/>
<path transform="translate(903,796)" d="m0 0 7 4-2 4-4 4-3-5v-6z" fill="#FE6D05"/>
<path transform="translate(386,292)" d="m0 0h22l13 3v1h-9l-26-3z" fill="#346A7B"/>
<path transform="translate(582,183)" d="m0 0h6v9h-6l-1-1v-7z" fill="#F1F0EE"/>
<path transform="translate(897,922)" d="m0 0 24 2v2h-12l-15-1-1-2z" fill="#FC981E"/>
<path transform="translate(837,670)" d="m0 0h1l2 29-2 1-2-16v-13zm-1 30 2 1-2 1z" fill="#C96C6A"/>
<path transform="translate(957,324)" d="m0 0 3 1-2 2h-3l-2 6-4 8-1 6h-1l-1-8 4-9z" fill="#FC921B"/>
<path transform="translate(664,131)" d="m0 0h2v5h4v2h-4l1 9 3 1v2h-5l-1-1v-11h-3v-2h3z" fill="#232525"/>
<path transform="translate(652,136)" d="m0 0h7v2l-6 1 3 3 3 2v5l-1 1h-7v-2h6l-1-3-6-4z" fill="#20282B"/>
<path transform="translate(889 1e3)" d="m0 0h1v14l-1 22h-1l-1-25 1-9z" fill="#D8C8BE"/>
<path transform="translate(947,352)" d="m0 0h1l3 9 5 4h8l-2 3-4 1-8-4-3-4z" fill="#FC8E19"/>
<path transform="translate(295,923)" d="m0 0h4l4 5-10 5h-2v-2h2l1-6z" fill="#FB991F"/>
<path transform="translate(365,673)" d="m0 0 3 4 8 16 2 5h2l1-2 1 5-4-2-1 2-12-25z" fill="#B69278"/>
<path transform="translate(949,920)" d="m0 0h6l-2 1v2h8v1l-7 1h-12l3-4z" fill="#FE810B"/>
<path transform="translate(819,690)" d="m0 0h1v9l-1-3-7 6-7 10-2-1 12-16z" fill="#DB9448"/>
<path transform="translate(901,256)" d="m0 0 2 1-7 10-4 6-6 8v-3l10-16z" fill="#DFB19A"/>
<path transform="translate(938,881)" d="m0 0 3 1v2l-10 1h-9l-1-3z" fill="#FE7808"/>
<path transform="translate(841,1235)" d="m0 0 10 2 8 4v2l-11-3-7-3z" fill="#F67822"/>
<path transform="translate(465,1160)" d="m0 0h1v24l-3-3v-11z" fill="#0081BA"/>
<path transform="translate(378,928)" d="m0 0 8 1 20 3v1l-15 1-8-3-5-2z" fill="#B69172"/>
<path transform="translate(987,903)" d="m0 0h1v14l-4 1-2-3-4-2 8-3z" fill="#F67F27"/>
<path transform="translate(830,560)" d="m0 0 4 2 5 5-1 4h-2l-5-6-4-2z" fill="#FBAC2D"/>
<path transform="translate(619,129)" d="m0 0h2l1 17 3 3h-6z" fill="#142228"/>
<path transform="translate(914,551)" d="m0 0h13l-1 4-9 1-1-4z" fill="#876752"/>
<path transform="translate(536,773)" d="m0 0 3 1-1 6-4 6-2-2 1-6z" fill="#FE850D"/>
<path transform="translate(348,664)" d="m0 0 4 2 2 6 1 4-7-6-4-4z" fill="#D5AB93"/>
<path transform="translate(980,347)" d="m0 0 1 3-5 11-2 5h-3l2-5 3-7 1-6z" fill="#FD7A0E"/>
<path transform="translate(701,136)" d="m0 0h6l2 4v10h-3v-12h-5z" fill="#4B4A44"/>
<path transform="translate(299,1172)" d="m0 0h1l1 11 1 3-6 2 1-12z" fill="#0074AE"/>
<path transform="translate(486,1030)" d="m0 0 6 4 7 8 3 5-4-2-12-12z" fill="#B88C6B"/>
<path transform="translate(579,182)" d="m0 0h2l1 9 5 1-1 2h-4l-1 5h-2z" fill="#14232A"/>
<path transform="translate(697,129)" d="m0 0h2v9l2 1-1 1-1 10h-2z" fill="#3D3E3C"/>
<path transform="translate(378,699)" d="m0 0 4 2 12 12h-3l-6-4-6-6z" fill="#008BC6"/>
<path transform="translate(284,351)" d="m0 0 1 4-8 13-3 1 2-5 7-12z" fill="#456D77"/>
<path transform="translate(299,335)" d="m0 0 2 2-16 16 1-5 5-4 7-8z" fill="#0D6283"/>
<path transform="translate(580,129)" d="m0 0h2l1 11-1 10h-2z" fill="#16303A"/>
<path transform="translate(248,1195)" d="m0 0 3 1 1 13v3l-2-1v-3h-2z" fill="#0073AD"/>
<path transform="translate(211,1180)" d="m0 0 5 3-6 7-3 3 2-9z" fill="#047BB3"/>
<path transform="translate(387,729)" d="m0 0 5 2 1 6-1 2-4-2-2-7z" fill="#FBB130"/>
<path transform="translate(970,219)" d="m0 0 4 1-1 4-5 1v7h-1v-11l-2-1z" fill="#E7CCB6"/>
<path transform="translate(644,180)" d="m0 0h5l4 4v6l-3 1-1-7-6-1z" fill="#4C463E"/>
<path transform="translate(449,1387)" d="m0 0 5 1 8 6 3 4-1 2-11-10z" fill="#EAE5E1"/>
<path transform="translate(1060,637)" d="m0 0 2 1 2 9-4 5-1-9-2-4h3z" fill="#806654"/>
<path transform="translate(571,134)" d="m0 0h1v10l-1 6h-2v-15z" fill="#2D6E83"/>
<path transform="translate(981,914)" d="m0 0 3 2-1 3-9 2v-2l-3-1 8-3z" fill="#FC921A"/>
<path transform="translate(808,708)" d="m0 0v3l-8 10-4 1 6-10 5-3z" fill="#F18315"/>
<path transform="translate(657,181)" d="m0 0h8v2h-6v11h-2z" fill="#182126"/>
<path transform="translate(566,179)" d="m0 0 3 3 1 6h-6l1-8z" fill="#E6E0DB"/>
<path transform="translate(727,176)" d="m0 0h12l-1 4-3 4v-4l1-2h-9z" fill="#182B33"/>
<path transform="translate(280,610)" d="m0 0 7 1-1 5-2-1-2 2-3-4z" fill="#F18214"/>
<path transform="translate(587,291)" d="m0 0 6 1 4 4v2l-5-1-5-4z" fill="#E3DED9"/>
<path transform="translate(690,188)" d="m0 0 2 3 9 1-1 3h-8l-3-3z" fill="#35474B"/>
<path transform="translate(584,136)" d="m0 0h5l2 2v12h-2l-1-11-4-1z" fill="#112C37"/>
<path transform="translate(896,793)" d="m0 0h1l2 12 6 10-4-2-4-7-2-8z" fill="#FF870D"/>
<path transform="translate(820,483)" d="m0 0 3 1-2 5-6 3h-3l5-6h2z" fill="#BE8E6E"/>
<path transform="translate(819,606)" d="m0 0h2l4 5v2l-5 2-2-6z" fill="#181819"/>
<path transform="translate(919,1252)" d="m0 0h10l1 3-16-1v-1z" fill="#FE7006"/>
<path transform="translate(809,1199)" d="m0 0 8 2v2l-5 2h-3z" fill="#FA710D"/>
<path transform="translate(941,342)" d="m0 0h1l1 14-2 2-1-2v-11z" fill="#F8F8F8"/>
<path transform="translate(729,138)" d="m0 0h3v10h4v2h-6l-1-2z" fill="#47585A"/>
<path transform="translate(714,136)" d="m0 0h9l1 3v10h-1l-1-9-8-2z" fill="#304348"/>
<path transform="translate(829,556)" d="m0 0 3 1 5 7-4-2h-4-3l1-4h2z" fill="#E58F2A"/>
<path transform="translate(1044,1409)" d="m0 0 2 1-1 3-8 2-2-1v-2z" fill="#FB991F"/>
<path transform="translate(947,361)" d="m0 0 8 6 3 2-5 1-6-5z" fill="#F4A942"/>
<path transform="translate(960,324)" d="m0 0 4 1-1 3-10 4 2-5z" fill="#FD8A13"/>
<path transform="translate(676,181)" d="m0 0h10l-2 5-1-3-6 1-2 3v-5z" fill="#142127"/>
<path transform="translate(859,1241)" d="m0 0 9 1 4 4-7-1-6-2z" fill="#FE6D05"/>
<path transform="translate(395,842)" d="m0 0 7 4v6l-2 1-5-9z" fill="#0085BF"/>
<path transform="translate(526,793)" d="m0 0h1l-1 12-1-4h-2v-7z" fill="#008CC8"/>
<path transform="translate(868,1246)" d="m0 0 8 1 5 1-4 2h-8z" fill="#D7C5BC"/>
<path transform="translate(1055,609)" d="m0 0 1 2-1 4-7-2-1-3z" fill="#D5967A"/>
<path transform="translate(915,242)" d="m0 0m-1 1m-1 1v3l-9 9-2-1 8-9z" fill="#DEA288"/>
<path transform="translate(840,1429)" d="m0 0h14l-4 3h-6z" fill="#DCC1B1"/>
<path transform="translate(515,1057)" d="m0 0h5v6l-4-1-2-4z" fill="#B98968"/>
<path transform="translate(533,629)" d="m0 0 3 1-1 4-4 3-2-1 3-6z" fill="#F9F6F3"/>
<path transform="translate(957,324)" d="m0 0 3 1-2 2h-3l-2 5h-3v2l-2-1 6-7z" fill="#F5A33E"/>
<path transform="translate(833,308)" d="m0 0v3l-6 12-1-4 6-10z" fill="#E0AA90"/>
<path transform="translate(589,301)" d="m0 0 7 2-2 5h-3z" fill="#EFECE9"/>
<path transform="translate(1e3 222)" d="m0 0 5 1-4 1 2 7-1 6-2-3z" fill="#E09E81"/>
<path transform="translate(562,187)" d="m0 0 7 1-1 2-5 1-1 3h-3l2-6z" fill="#1F2B2F"/>
<path transform="translate(693,181)" d="m0 0h6l2 3v3h-6l1-2h3v-2h-7z" fill="#1C282C"/>
<path transform="translate(627,176)" d="m0 0h10v2h-8v4h-2z" fill="#142228"/>
<path transform="translate(717,143)" d="m0 0h5l-1 4-5 1-1-4z" fill="#E2DAD2"/>
<path transform="translate(507,880)" d="m0 0 2 4-1 7-3-3 1-7z" fill="#008ECA"/>
<path transform="translate(565,176)" d="m0 0 2 1-3 11h-3l3-10z" fill="#2B464E"/>
<path transform="translate(978,678)" d="m0 0v3l-6 5-4 1 1-3 5-3z" fill="#FF7B0A"/>
<path transform="translate(675,192)" d="m0 0h10v3l-10-1z" fill="#112B36"/>
</svg>
